<svg width="30" height="41" viewBox="0 0 30 41" fill="none" xmlns="http://www.w3.org/2000/svg">
<g clip-path="url(#clip0_102_256)">
<path fill-rule="evenodd" clip-rule="evenodd" d="M1.16788 24.9059C1.63651 24.4373 2.39631 24.4373 2.86493 24.9059L15.3809 37.4219L27.8969 24.9059C28.3655 24.4373 29.1253 24.4373 29.5939 24.9059C30.0626 25.3745 30.0626 26.1343 29.5939 26.603L16.2294 39.9675C16.0044 40.1925 15.6992 40.3189 15.3809 40.3189C15.0626 40.3189 14.7574 40.1925 14.5324 39.9675L1.16788 26.603C0.699248 26.1343 0.699248 25.3745 1.16788 24.9059Z" fill="#3B363C"/>
<path fill-rule="evenodd" clip-rule="evenodd" d="M15.3807 0.489502C16.0434 0.489502 16.5807 1.02676 16.5807 1.6895V38.7446C16.5807 39.4074 16.0434 39.9446 15.3807 39.9446C14.7179 39.9446 14.1807 39.4074 14.1807 38.7446V1.6895C14.1807 1.02676 14.7179 0.489502 15.3807 0.489502Z" fill="#3B363C"/>
</g>
<defs>
<clipPath id="clip0_102_256">
<rect width="30" height="41" fill="white"/>
</clipPath>
</defs>
</svg>
