<svg width="57" height="57" viewBox="0 0 57 57" fill="none" xmlns="http://www.w3.org/2000/svg">
<g clip-path="url(#clip0_19_221)">
<path d="M28.4165 56.0867C43.8158 56.0867 56.2993 43.6031 56.2993 28.2039C56.2993 12.8046 43.8158 0.321045 28.4165 0.321045C13.0173 0.321045 0.533691 12.8046 0.533691 28.2039C0.533691 43.6031 13.0173 56.0867 28.4165 56.0867Z" fill="url(#paint0_linear_19_221)"/>
<path d="M31.6831 29.8376C31.3651 29.8376 25.4602 29.8376 25.1481 29.8376V36.3726H31.6831C33.486 36.3726 34.9507 34.9064 34.9507 33.1051C34.9507 31.3038 33.486 29.8376 31.6831 29.8376ZM33.3169 23.3026C33.3169 21.5013 31.8523 20.035 30.0494 20.035H25.1481V26.5701H30.0494C31.8523 26.5701 33.3169 25.1038 33.3169 23.3026ZM28.4156 6.96497C16.7048 6.96497 7.17676 16.493 7.17676 28.2038C7.17676 39.9146 16.7048 49.4427 28.4156 49.4427C40.1264 49.4427 49.6545 39.9146 49.6545 28.2038C49.6545 16.493 40.1264 6.96497 28.4156 6.96497ZM31.6831 39.6401H30.0494V41.2739C30.0494 42.1769 29.3187 42.9077 28.4156 42.9077C27.5126 42.9077 26.7819 42.1769 26.7819 41.2739V39.6401C26.4378 39.6401 20.5584 39.6401 20.2468 39.6401C19.3438 39.6401 18.6131 38.9094 18.6131 38.0064C18.6131 37.1034 19.3438 36.3726 20.2468 36.3726H21.8806C21.8806 35.8775 21.8806 20.9682 21.8806 20.035H20.2468C19.3438 20.035 18.6131 19.3043 18.6131 18.4013C18.6131 17.4982 19.3438 16.7675 20.2468 16.7675H26.7819V15.1338C26.7819 14.2307 27.5126 13.5 28.4156 13.5C29.3187 13.5 30.0494 14.2307 30.0494 15.1338V16.7675C33.6519 16.7675 36.5844 19.6984 36.5844 23.3026C36.5844 24.913 35.9766 26.37 35.0075 27.5102C36.9202 28.6514 38.2182 30.72 38.2182 33.1051C38.2182 36.7093 35.2857 39.6401 31.6831 39.6401Z" fill="url(#paint1_linear_19_221)"/>
</g>
<defs>
<linearGradient id="paint0_linear_19_221" x1="28.4165" y1="56.0867" x2="28.4165" y2="0.321045" gradientUnits="userSpaceOnUse">
<stop/>
<stop offset="1" stop-color="#898989"/>
</linearGradient>
<linearGradient id="paint1_linear_19_221" x1="28.4156" y1="6.96497" x2="28.4156" y2="49.4427" gradientUnits="userSpaceOnUse">
<stop stop-color="white"/>
<stop offset="1" stop-color="#C5E5F5"/>
</linearGradient>
<clipPath id="clip0_19_221">
<rect width="55.7656" height="55.7656" fill="white" transform="translate(0.531738 0.320801)"/>
</clipPath>
</defs>
</svg>
