<svg width="34" height="34" viewBox="0 0 34 34" fill="none" xmlns="http://www.w3.org/2000/svg">
<path fill-rule="evenodd" clip-rule="evenodd" d="M25.5 1.0625C29.6076 1.0625 32.9375 4.39237 32.9375 8.5V21.25C32.9375 25.3576 29.6076 28.6875 25.5 28.6875H8.31406L2.74975 32.734C2.59126 32.8492 2.404 32.9184 2.20867 32.9338C2.01334 32.9492 1.81754 32.9104 1.64293 32.8215C1.46832 32.7326 1.32169 32.5971 1.21926 32.4301C1.11682 32.263 1.06257 32.0709 1.0625 31.875V8.5C1.0625 4.39237 4.39238 1.0625 8.5 1.0625H25.5ZM30.8125 8.5C30.8125 5.56591 28.4341 3.1875 25.5 3.1875H8.5C5.56591 3.1875 3.1875 5.56591 3.1875 8.5V29.7882L7.344 26.7654C7.52559 26.6335 7.74429 26.5625 7.96875 26.5625H25.5C28.4341 26.5625 30.8125 24.1841 30.8125 21.25V8.5Z" fill="white"/>
<path d="M24.4375 12.75C25.0011 12.75 25.5416 12.9739 25.9401 13.3724C26.3386 13.7709 26.5625 14.3114 26.5625 14.875C26.5625 15.4386 26.3386 15.9791 25.9401 16.3776C25.5416 16.7761 25.0011 17 24.4375 17C23.8739 17 23.3334 16.7761 22.9349 16.3776C22.5364 15.9791 22.3125 15.4386 22.3125 14.875C22.3125 14.3114 22.5364 13.7709 22.9349 13.3724C23.3334 12.9739 23.8739 12.75 24.4375 12.75ZM19.125 14.875C19.125 14.3114 18.9011 13.7709 18.5026 13.3724C18.1041 12.9739 17.5636 12.75 17 12.75C16.4364 12.75 15.8959 12.9739 15.4974 13.3724C15.0989 13.7709 14.875 14.3114 14.875 14.875C14.875 15.4386 15.0989 15.9791 15.4974 16.3776C15.8959 16.7761 16.4364 17 17 17C17.5636 17 18.1041 16.7761 18.5026 16.3776C18.9011 15.9791 19.125 15.4386 19.125 14.875ZM9.5625 12.75C10.1261 12.75 10.6666 12.9739 11.0651 13.3724C11.4636 13.7709 11.6875 14.3114 11.6875 14.875C11.6875 15.4386 11.4636 15.9791 11.0651 16.3776C10.6666 16.7761 10.1261 17 9.5625 17C8.99891 17 8.45841 16.7761 8.0599 16.3776C7.66138 15.9791 7.4375 15.4386 7.4375 14.875C7.4375 14.3114 7.66138 13.7709 8.0599 13.3724C8.45841 12.9739 8.99891 12.75 9.5625 12.75Z" fill="#FF9900"/>
</svg>
