<svg width="42" height="42" viewBox="0 0 42 42" fill="none" xmlns="http://www.w3.org/2000/svg">
<path d="M21 0C16.8466 0 12.7865 1.23163 9.33303 3.53914C5.8796 5.84665 3.18798 9.1264 1.59854 12.9636C0.00909917 16.8009 -0.406771 21.0233 0.403518 25.0969C1.21381 29.1705 3.21386 32.9123 6.15077 35.8492C9.08767 38.7861 12.8295 40.7862 16.9031 41.5965C20.9767 42.4068 25.1991 41.9909 29.0364 40.4015C32.8736 38.812 36.1534 36.1204 38.4609 32.667C40.7684 29.2135 42 25.1534 42 21C42 15.4305 39.7875 10.089 35.8492 6.15076C31.911 2.21249 26.5695 0 21 0ZM21.9002 12.8996C23.8091 12.9018 25.6392 13.6611 26.9891 15.0109C28.3389 16.3608 29.0982 18.1909 29.1004 20.0998H27.3C27.2985 18.6681 26.7291 17.2955 25.7168 16.2832C24.7045 15.2709 23.3319 14.7015 21.9002 14.7V12.8996ZM27.7312 33.6C27.6766 33.6 22.2712 33.5076 15.3202 26.6798C8.49241 19.7316 8.40001 14.3234 8.40001 14.2688C8.40001 13.5954 12.6 8.4 13.5282 8.4C13.8502 8.4 14.1008 8.6184 14.3752 8.946C15.036 9.7328 17.9578 14.3444 17.8234 15.113C17.759 15.4742 17.4524 15.7486 16.5732 16.4864C16.14 16.827 15.7346 17.2015 15.3608 17.6064C15.5398 18.3473 15.8058 19.0644 16.1532 19.7428C17.4476 22.4041 19.5981 24.5537 22.26 25.8468C22.9384 26.1942 23.6555 26.4602 24.3964 26.6392C24.8013 26.2654 25.1758 25.86 25.5164 25.4268C26.2542 24.5476 26.5286 24.241 26.8898 24.1766C27.6584 24.0366 32.27 26.964 33.0568 27.6248C33.3844 27.9048 33.6028 28.1498 33.6028 28.4718C33.6 29.4 28.4046 33.6 27.7312 33.6ZM31.7996 20.0998C31.7966 17.4752 30.7527 14.959 28.8969 13.1031C27.041 11.2473 24.5248 10.2034 21.9002 10.2004V8.4C25.002 8.4037 27.9758 9.63755 30.1691 11.8309C32.3625 14.0242 33.5963 16.998 33.6 20.0998H31.7996Z" fill="white"/>
</svg>
