<svg width="28" height="20" viewBox="0 0 28 20" fill="none" xmlns="http://www.w3.org/2000/svg">
<path d="M27.3805 2.85766L27.4155 3.08825C27.0772 1.87766 26.1637 0.943545 25.0029 0.603545L24.9784 0.597663C22.7956 1.61283e-05 14.0118 1.62589e-05 14.0118 1.62589e-05C14.0118 1.62589e-05 5.25028 -0.0117486 3.04531 0.597663C1.86232 0.943545 0.947665 1.87766 0.615169 3.06354L0.609336 3.08825C-0.206154 7.38354 -0.211988 12.5447 0.645502 17.1435L0.609336 16.9106C0.947665 18.1212 1.86115 19.0553 3.02197 19.3953L3.04647 19.4012C5.22695 20 14.013 20 14.013 20C14.013 20 22.7734 20 24.9795 19.4012C26.1637 19.0553 27.0783 18.1212 27.4108 16.9353L27.4167 16.9106C27.7877 14.9129 28 12.6141 28 10.2659C28 10.18 28 10.0929 27.9988 10.0059C28 9.92589 28 9.8306 28 9.7353C28 7.38589 27.7877 5.08707 27.3805 2.85766ZM11.2095 14.2953V5.71531L18.5198 10.0118L11.2095 14.2953Z" fill="white"/>
</svg>
