<svg width="225" height="55" viewBox="0 0 225 55" fill="none" xmlns="http://www.w3.org/2000/svg">
<path d="M75.4242 26.9672C76.7611 27.6235 77.8139 28.5371 78.5774 29.7105C79.3409 30.8839 79.724 32.2233 79.724 33.7236C79.724 36.0168 78.9176 37.9403 77.3076 39.4968C75.6975 41.0533 73.7311 41.8302 71.4111 41.8302H59.0449V13.165H70.511C72.7774 13.165 74.6741 13.9152 76.2038 15.4181C77.7603 16.921 78.5372 18.7748 78.5372 20.9877C78.5372 23.5541 77.5005 25.5473 75.4242 26.9672ZM70.511 16.7308H62.8544V25.4937H70.511C71.7112 25.4937 72.7211 25.0704 73.5409 24.2239C74.3607 23.3773 74.7706 22.3406 74.7706 21.1109C74.7706 19.8813 74.3473 18.8874 73.5007 18.0408C72.681 17.1674 71.6844 16.7308 70.511 16.7308ZM62.8544 38.2698H71.4138C72.697 38.2698 73.774 37.8197 74.65 36.9196C75.5234 36.0195 75.96 34.9131 75.96 33.603C75.96 32.293 75.51 31.2268 74.6098 30.3266C73.7633 29.4265 72.6997 28.9764 71.4165 28.9764H62.8571V38.2725L62.8544 38.2698Z" fill="url(#paint0_linear_19_337)"/>
<path d="M84.229 41.8329V13.1677H88.0385V41.8329H84.229Z" fill="url(#paint1_linear_19_337)"/>
<path d="M91.8447 13.1677H112.524V16.771H104.048V41.8302H100.281V16.771H91.8447V13.1677Z" fill="url(#paint2_linear_19_337)"/>
<path d="M132.69 26.9672C134.026 27.6235 135.079 28.5371 135.843 29.7105C136.606 30.8839 136.989 32.2233 136.989 33.7236C136.989 36.0168 136.183 37.9403 134.573 39.4968C132.963 41.0533 130.996 41.8302 128.676 41.8302H116.31V13.165H127.776C130.043 13.165 131.939 13.9152 133.469 15.4181C135.026 16.921 135.803 18.7748 135.803 20.9877C135.803 23.5541 134.766 25.5473 132.69 26.9672ZM127.776 16.7308H120.12V25.4937H127.776C128.977 25.4937 129.987 25.0704 130.806 24.2239C131.626 23.3773 132.036 22.3406 132.036 21.1109C132.036 19.8813 131.613 18.8874 130.766 18.0408C129.946 17.1674 128.95 16.7308 127.776 16.7308ZM120.12 38.2698H128.679C129.962 38.2698 131.039 37.8197 131.915 36.9196C132.789 36.0195 133.225 34.9131 133.225 33.603C133.225 32.293 132.775 31.2268 131.875 30.3266C131.029 29.4265 129.965 28.9764 128.682 28.9764H120.122V38.2725L120.12 38.2698Z" fill="url(#paint3_linear_19_337)"/>
<path d="M162.703 41.8329H158.486L152.057 30.8597H145.3V41.8329H141.491V13.1677H152.957C155.414 13.1677 157.517 14.0411 159.263 15.7878C161.01 17.5077 161.883 19.5973 161.883 22.0539C161.883 23.9105 161.323 25.6036 160.204 27.1306C159.057 28.6871 157.637 29.7667 155.944 30.3668L162.7 41.8329H162.703ZM152.957 16.7308H145.3V27.4172H152.957C154.377 27.4172 155.577 26.9002 156.56 25.8608C157.57 24.824 158.077 23.5542 158.077 22.0512C158.077 20.5483 157.57 19.2946 156.56 18.2846C155.577 17.2478 154.377 16.7281 152.957 16.7281V16.7308Z" fill="url(#paint4_linear_19_337)"/>
<path d="M189.441 41.8329H185.388L183.054 35.4033H170.155L167.822 41.8329H163.768L174.455 13.1677H178.755L189.441 41.8329ZM176.582 17.714L171.462 31.8403H181.742L176.582 17.714Z" fill="url(#paint5_linear_19_337)"/>
<path d="M192.838 41.8329V13.1677H196.647V41.8329H192.838Z" fill="url(#paint6_linear_19_337)"/>
<path d="M220.602 34.5433V13.1677H224.409V41.8329H221.339L206.596 20.4171V41.8329H202.787V13.1677H205.857L220.599 34.5433H220.602Z" fill="url(#paint7_linear_19_337)"/>
<path d="M32.0793 28.4781C31.1122 27.6851 29.9844 27.3744 28.6958 27.5458L20.1123 28.6764L21.2777 37.517C21.3125 37.7822 21.5563 37.9698 21.8242 37.9349L29.9254 36.866C31.2113 36.6973 32.2347 36.1025 32.9929 35.0818C33.751 34.0638 34.043 32.8958 33.8689 31.5804C33.7001 30.2945 33.1027 29.2577 32.0793 28.4728V28.4781Z" fill="url(#paint8_linear_19_337)"/>
<path d="M30.202 20.8322C30.9119 19.8758 31.1852 18.7801 31.0217 17.5477C30.8637 16.3422 30.3038 15.3724 29.342 14.6357C28.4044 13.8668 27.3462 13.5614 26.1701 13.7168L19.036 14.6571C18.7332 14.6973 18.5216 14.9732 18.5618 15.2759L19.6494 23.5192L27.3301 22.5065C28.5356 22.3485 29.492 21.7912 30.202 20.8322Z" fill="url(#paint9_linear_19_337)"/>
<path d="M47.6059 30.9159C47.6702 30.2435 48.1899 29.5603 48.5596 28.5637C49.4383 26.2062 48.948 24.0068 47.1853 22.2119C46.5102 21.5234 46.3521 20.9474 46.6361 20.0392C47.6193 16.8968 45.8538 13.5695 42.7087 12.5032C41.3156 12.0317 40.4423 11.8469 40.1904 11.3834C39.885 10.8208 40.3699 10.0118 40.4235 9.90192C41.0477 8.65352 40.8146 7.19079 40.2467 6.03079C39.6707 4.85203 35.087 2.20252 35.087 2.20252C34.6905 1.98285 34.219 1.68816 33.7207 1.44973C32.1267 0.691575 30.5005 0.0245065 28.6922 0.000395674C26.9991 -0.0237152 25.5069 1.05591 25.5069 2.74099C25.5069 4.42607 23.4789 4.21711 23.4789 2.74099C23.4789 1.05591 21.9867 -0.0237152 20.2936 0.000395674C18.4853 0.0245065 16.8592 0.691575 15.2652 1.44973C14.7669 1.68548 14.298 1.98017 13.8989 2.20252C13.8989 2.20252 9.31513 4.84935 8.73915 6.03079C8.17389 7.19079 7.93814 8.65619 8.56234 9.90192C8.61592 10.0091 9.10081 10.8208 8.79541 11.3834C8.54359 11.8495 7.67024 12.0317 6.27716 12.5032C3.13471 13.5695 1.36659 16.8994 2.34977 20.0392C2.63375 20.9474 2.47568 21.5234 1.80058 22.2119C0.0378076 24.0068 -0.452446 26.2062 0.426261 28.5637C0.79864 29.5603 1.31836 30.2408 1.37998 30.9159C1.47106 31.891 0.988847 32.6412 0.900441 32.5715C-0.500669 34.6397 -0.157758 37.9214 1.6961 39.7833C2.22654 40.3164 2.88557 40.7344 3.52317 41.1469C4.17684 41.5675 4.32954 41.8006 4.20631 42.5507C3.64372 45.9879 5.58867 49.3178 8.86239 50.4671C9.51338 50.6948 9.96613 51.0565 10.3278 51.6486C11.8923 54.2177 15.0482 55.5036 17.979 54.8151C20.9446 54.1159 23.4736 51.6378 23.4736 48.6186C23.4736 47.1425 25.5123 46.9684 25.5123 48.6186C25.5123 51.6378 28.0412 54.1186 31.0069 54.8151C33.9377 55.5063 37.0935 54.2177 38.6581 51.6486C39.0197 51.0565 39.4725 50.6948 40.1235 50.4671C43.3972 49.3178 45.3394 45.9879 44.7795 42.5507C44.6563 41.8033 44.809 41.5675 45.4627 41.1469C46.1003 40.737 46.7593 40.3164 47.2897 39.7833C49.1436 37.9214 49.4838 34.6397 48.0854 32.5715C47.9943 32.6385 47.5121 31.8884 47.6059 30.9159ZM37.1364 37.7044C35.5665 39.6789 33.4849 40.8362 30.8944 41.1791L28.1806 41.5354L28.6681 45.227L26.2169 45.5512L26.1365 44.9404L25.7293 41.8595L23.7897 42.114L24.2773 45.8057L21.826 46.1298L21.3384 42.4382L17.6548 42.9231C17.3387 42.966 17.0467 42.7409 17.0065 42.4248L12.9291 11.4906C12.8916 11.2146 13.0871 10.9601 13.3631 10.9226L16.6368 10.4913L16.1599 6.86931L16.6341 6.8077L18.6112 6.54784L19.0908 10.1698L21.5045 9.85102L21.025 6.22904L21.3438 6.18617L23.4789 5.90488L23.9585 9.52687L25.6703 9.30183C28.1993 8.96696 30.4282 9.52686 32.3571 10.9789C34.3154 12.4255 35.4567 14.3839 35.7835 16.8539C36.1612 19.7204 35.2959 22.0993 33.1876 23.988C34.7762 24.5238 36.0862 25.3891 37.1123 26.5866C38.1383 27.7842 38.7625 29.2228 38.9822 30.8998C39.3198 33.4609 38.7036 35.7273 37.1337 37.7018L37.1364 37.7044Z" fill="url(#paint10_linear_19_337)"/>
<defs>
<linearGradient id="paint0_linear_19_337" x1="53.2664" y1="22.22" x2="193.104" y2="81.7122" gradientUnits="userSpaceOnUse">
<stop stop-color="#199CDE"/>
<stop offset="1" stop-color="#48D4FF"/>
</linearGradient>
<linearGradient id="paint1_linear_19_337" x1="56.4024" y1="14.8501" x2="196.24" y2="74.3424" gradientUnits="userSpaceOnUse">
<stop stop-color="#199CDE"/>
<stop offset="1" stop-color="#48D4FF"/>
</linearGradient>
<linearGradient id="paint2_linear_19_337" x1="59.5067" y1="7.54989" x2="199.344" y2="67.0421" gradientUnits="userSpaceOnUse">
<stop stop-color="#199CDE"/>
<stop offset="1" stop-color="#48D4FF"/>
</linearGradient>
<linearGradient id="paint3_linear_19_337" x1="62.0421" y1="1.59182" x2="201.88" y2="61.0841" gradientUnits="userSpaceOnUse">
<stop stop-color="#199CDE"/>
<stop offset="1" stop-color="#48D4FF"/>
</linearGradient>
<linearGradient id="paint4_linear_19_337" x1="65.9061" y1="-7.49529" x2="205.744" y2="51.9969" gradientUnits="userSpaceOnUse">
<stop stop-color="#199CDE"/>
<stop offset="1" stop-color="#48D4FF"/>
</linearGradient>
<linearGradient id="paint5_linear_19_337" x1="69.4466" y1="-15.8162" x2="209.284" y2="43.6787" gradientUnits="userSpaceOnUse">
<stop stop-color="#199CDE"/>
<stop offset="1" stop-color="#48D4FF"/>
</linearGradient>
<linearGradient id="paint6_linear_19_337" x1="73.0439" y1="-24.2738" x2="212.882" y2="35.2187" gradientUnits="userSpaceOnUse">
<stop stop-color="#199CDE"/>
<stop offset="1" stop-color="#48D4FF"/>
</linearGradient>
<linearGradient id="paint7_linear_19_337" x1="75.9366" y1="-31.0677" x2="215.774" y2="28.4246" gradientUnits="userSpaceOnUse">
<stop stop-color="#199CDE"/>
<stop offset="1" stop-color="#48D4FF"/>
</linearGradient>
<linearGradient id="paint8_linear_19_337" x1="4.751" y1="3.01705" x2="34.7985" y2="43.9412" gradientUnits="userSpaceOnUse">
<stop stop-color="#199CDE"/>
<stop offset="1" stop-color="#48D4FF"/>
</linearGradient>
<linearGradient id="paint9_linear_19_337" x1="9.19872" y1="-1.91512" x2="39.2462" y2="39.0091" gradientUnits="userSpaceOnUse">
<stop stop-color="#199CDE"/>
<stop offset="1" stop-color="#48D4FF"/>
</linearGradient>
<linearGradient id="paint10_linear_19_337" x1="4.70728" y1="2.24539" x2="34.7521" y2="43.1722" gradientUnits="userSpaceOnUse">
<stop stop-color="#199CDE"/>
<stop offset="1" stop-color="#48D4FF"/>
</linearGradient>
</defs>
</svg>
