<svg width="41" height="45" viewBox="0 0 41 45" fill="none" xmlns="http://www.w3.org/2000/svg">
<g opacity="0.5" clip-path="url(#clip0_19_233)">
<path fill-rule="evenodd" clip-rule="evenodd" d="M34.124 5.5575C33.945 5.5575 33.7661 5.5125 33.6095 5.4225C29.3147 3.195 25.6016 2.25 21.1503 2.25C16.7213 2.25 12.5161 3.3075 8.69106 5.4225C8.15422 5.715 7.48317 5.5125 7.17001 4.9725C6.87922 4.4325 7.08053 3.735 7.61738 3.4425C11.7779 1.17 16.3411 0 21.1503 0C25.9147 0 30.0753 1.0575 34.6384 3.42C35.1976 3.7125 35.399 4.3875 35.1082 4.9275C34.9068 5.3325 34.5266 5.5575 34.124 5.5575ZM2.11474 17.37C1.89106 17.37 1.66738 17.3025 1.46606 17.1675C0.951587 16.8075 0.839744 16.11 1.19764 15.5925C3.41211 12.4425 6.23053 9.9675 9.5858 8.235C16.6095 4.59 25.6016 4.5675 32.6476 8.2125C36.0029 9.945 38.8213 12.3975 41.0358 15.525C41.3937 16.02 41.2818 16.74 40.7674 17.1C40.2529 17.46 39.5595 17.3475 39.2016 16.83C37.1884 13.995 34.6384 11.7675 31.6187 10.215C25.199 6.9075 16.9897 6.9075 10.5924 10.2375C7.55027 11.8125 5.00027 14.0625 2.98711 16.8975C2.80817 17.2125 2.47264 17.37 2.11474 17.37ZM16.095 44.5275C15.8042 44.5275 15.5134 44.415 15.3121 44.19C13.3661 42.2325 12.3147 40.9725 10.8161 38.25C9.27264 35.4825 8.46738 32.1075 8.46738 28.485C8.46738 21.8025 14.149 16.3575 21.1279 16.3575C28.1068 16.3575 33.7884 21.8025 33.7884 28.485C33.7884 29.115 33.2963 29.61 32.67 29.61C32.0437 29.61 31.5516 29.115 31.5516 28.485C31.5516 23.04 26.8766 18.6075 21.1279 18.6075C15.3792 18.6075 10.7042 23.04 10.7042 28.485C10.7042 31.725 11.42 34.7175 12.7845 37.1475C14.2161 39.735 15.2003 40.8375 16.9226 42.5925C17.3476 43.0425 17.3476 43.74 16.9226 44.19C16.6766 44.415 16.3858 44.5275 16.095 44.5275ZM32.1332 40.365C29.4713 40.365 27.1226 39.69 25.199 38.3625C21.8661 36.09 19.8753 32.4 19.8753 28.485C19.8753 27.855 20.3674 27.36 20.9937 27.36C21.62 27.36 22.1121 27.855 22.1121 28.485C22.1121 31.6575 23.7226 34.65 26.4516 36.495C28.0397 37.575 29.8963 38.0925 32.1332 38.0925C32.67 38.0925 33.5647 38.025 34.4595 37.8675C35.0634 37.755 35.645 38.16 35.7568 38.79C35.8687 39.3975 35.4661 39.9825 34.8397 40.095C33.5647 40.3425 32.4463 40.365 32.1332 40.365ZM27.6371 45C27.5476 45 27.4358 44.9775 27.3463 44.955C23.7897 43.965 21.4634 42.6375 19.0253 40.23C15.8937 37.1025 14.1713 32.94 14.1713 28.485C14.1713 24.84 17.2582 21.87 21.0608 21.87C24.8634 21.87 27.9503 24.84 27.9503 28.485C27.9503 30.8925 30.0305 32.85 32.6029 32.85C35.1753 32.85 37.2555 30.8925 37.2555 28.485C37.2555 20.0025 29.9858 13.1175 21.0384 13.1175C14.6858 13.1175 8.87001 16.6725 6.2529 22.185C5.38053 24.0075 4.93317 26.145 4.93317 28.485C4.93317 30.24 5.08974 33.0075 6.43185 36.6075C6.65553 37.1925 6.36474 37.845 5.78316 38.0475C5.20159 38.2725 4.5529 37.9575 4.35159 37.395C3.25553 34.4475 2.71869 31.5225 2.71869 28.485C2.71869 25.785 3.23317 23.3325 4.23974 21.195C7.21474 14.9175 13.8134 10.845 21.0384 10.845C31.2161 10.845 39.4924 18.7425 39.4924 28.4625C39.4924 32.1075 36.4055 35.0775 32.6029 35.0775C28.8003 35.0775 25.7134 32.1075 25.7134 28.4625C25.7134 26.055 23.6332 24.0975 21.0608 24.0975C18.4884 24.0975 16.4082 26.055 16.4082 28.4625C16.4082 32.31 17.8845 35.91 20.5911 38.61C22.7161 40.725 24.7516 41.895 27.9055 42.7725C28.5095 42.93 28.845 43.56 28.6884 44.145C28.5766 44.6625 28.1068 45 27.6371 45Z" fill="white"/>
</g>
<defs>
<clipPath id="clip0_19_233">
<rect width="40.2632" height="45" fill="white"/>
</clipPath>
</defs>
</svg>
