<svg width="25" height="25" viewBox="0 0 25 25" fill="none" xmlns="http://www.w3.org/2000/svg">
<circle cx="12.5" cy="12.5" r="12.5" fill="#59C3EE"/>
<path d="M11.3453 15.5506V15.3407C11.3494 14.6201 11.4132 14.0458 11.5367 13.6176C11.6643 13.1894 11.8496 12.8435 12.0925 12.58C12.3355 12.3165 12.6278 12.0777 12.9695 11.8636C13.2248 11.6989 13.4533 11.5281 13.655 11.351C13.8568 11.174 14.0174 10.9784 14.1368 10.7643C14.2562 10.5461 14.3159 10.3032 14.3159 10.0356C14.3159 9.75147 14.2479 9.50238 14.1121 9.28828C13.9762 9.07419 13.793 8.90949 13.5624 8.79421C13.336 8.67893 13.0848 8.62129 12.8089 8.62129C12.5413 8.62129 12.2881 8.68099 12.0493 8.80039C11.8105 8.91567 11.6149 9.0886 11.4626 9.31916C11.3103 9.54561 11.2279 9.82764 11.2156 10.1653H8.6958C8.71639 9.34181 8.91402 8.66246 9.28869 8.12722C9.66336 7.58785 10.1595 7.18642 10.7771 6.92292C11.3947 6.6553 12.0761 6.52148 12.8213 6.52148C13.6406 6.52148 14.3653 6.65735 14.9952 6.92909C15.6251 7.19671 16.1192 7.5858 16.4774 8.09634C16.8356 8.60688 17.0147 9.22241 17.0147 9.94293C17.0147 10.4246 16.9344 10.8528 16.7739 11.2275C16.6174 11.5981 16.3971 11.9274 16.113 12.2157C15.829 12.4997 15.4934 12.7571 15.1064 12.9876C14.7811 13.1812 14.5135 13.3829 14.3035 13.5929C14.0976 13.8029 13.9432 14.0458 13.8403 14.3216C13.7415 14.5975 13.69 14.9372 13.6859 15.3407V15.5506H11.3453ZM12.5681 19.5032C12.1564 19.5032 11.8043 19.3591 11.512 19.0709C11.2238 18.7786 11.0818 18.4286 11.0859 18.021C11.0818 17.6175 11.2238 17.2716 11.512 16.9834C11.8043 16.6952 12.1564 16.5511 12.5681 16.5511C12.9592 16.5511 13.303 16.6952 13.5995 16.9834C13.8959 17.2716 14.0462 17.6175 14.0503 18.021C14.0462 18.2927 13.9741 18.5418 13.8341 18.7683C13.6983 18.9906 13.5192 19.1697 13.2968 19.3056C13.0745 19.4373 12.8316 19.5032 12.5681 19.5032Z" fill="white"/>
</svg>
