<svg width="124" height="124" viewBox="0 0 124 124" fill="none" xmlns="http://www.w3.org/2000/svg">
<path d="M17.4433 90.3119C17.9661 91.1298 18.2765 91.9125 18.3745 92.66C18.4726 93.4076 18.3811 94.0864 18.1001 94.6964C17.819 95.3065 17.3774 95.804 16.7753 96.1889L15.9308 94.8677C16.2274 94.6781 16.4752 94.4121 16.6741 94.0698C16.8673 93.7184 16.945 93.2953 16.9071 92.8004C16.8636 92.2966 16.6379 91.7256 16.23 91.0875C15.8508 90.4943 15.4552 90.0635 15.0432 89.7952C14.6222 89.5326 14.2149 89.4005 13.8214 89.3988C13.4189 89.4029 13.0514 89.5113 12.7188 89.7238C12.3144 89.9823 12.0939 90.3701 12.0573 90.8872C12.0117 91.4101 12.1729 92.0287 12.5408 92.7429L13.1445 93.8952C13.6298 94.813 13.8054 95.6819 13.6712 96.5019C13.5371 97.3219 13.088 97.976 12.3241 98.4643C11.7219 98.8492 11.1042 99.0415 10.471 99.0411C9.83208 99.0318 9.22018 98.8469 8.63533 98.4865C8.0415 98.1318 7.52341 97.6084 7.08106 96.9164C6.64446 96.2333 6.38539 95.5508 6.30384 94.8686C6.2223 94.1865 6.3188 93.5551 6.59333 92.9746C6.85313 92.3907 7.29759 91.8977 7.92672 91.4956L8.7712 92.8168C8.45663 93.0178 8.20887 93.2838 8.02792 93.6147C7.84122 93.9366 7.75853 94.3123 7.77985 94.7417C7.80116 95.1712 7.97267 95.6376 8.29438 96.1409C8.60459 96.6262 8.94849 96.976 9.32606 97.1904C9.69789 97.3959 10.0748 97.4904 10.4568 97.4741C10.8241 97.4545 11.165 97.3442 11.4796 97.1432C11.8391 96.9134 12.0691 96.5701 12.1697 96.1134C12.2702 95.6567 12.1677 95.1399 11.8622 94.5629L11.2586 93.4106C10.8817 92.7021 10.6549 92.0305 10.5784 91.3958C10.4871 90.7579 10.5514 90.1851 10.7713 89.6774C10.9764 89.1665 11.3441 88.7416 11.8744 88.4026C12.4765 88.0177 13.1147 87.8377 13.7889 87.8625C14.463 87.8874 15.1171 88.1086 15.7512 88.5262C16.3852 88.9437 16.9493 89.539 17.4433 90.3119Z" fill="#9F9F9F"/>
<path d="M11.0389 76.2366C11.2464 76.9428 11.3039 77.5929 11.2116 78.187C11.1163 78.7709 10.9136 79.2918 10.6034 79.7498C10.283 80.2108 9.89766 80.6019 9.4473 80.9232C8.99392 81.2342 8.51649 81.4634 8.01502 81.6107L7.73869 81.6919C7.21675 81.8453 6.68098 81.9137 6.1314 81.8973C5.57882 81.8706 5.05335 81.747 4.55501 81.5265C4.04342 81.2988 3.58966 80.9652 3.19372 80.5256C2.79778 80.0861 2.49909 79.5234 2.29767 78.8378C2.09624 78.1521 2.04378 77.5004 2.1403 76.8829C2.23381 76.255 2.46785 75.7082 2.84242 75.2425C3.20375 74.7694 3.69567 74.4193 4.31816 74.1919L4.73305 75.6043C4.24238 75.8262 3.8868 76.1864 3.66632 76.6847C3.43561 77.1861 3.41946 77.7745 3.61788 78.4499C3.78925 79.0333 4.06509 79.4803 4.44543 79.7911C4.82576 80.1018 5.27476 80.2867 5.79242 80.3459C6.31008 80.4051 6.86059 80.349 7.44394 80.1776C8.00682 80.0123 8.49509 79.7632 8.90874 79.4305C9.31216 79.1007 9.59491 78.7008 9.75699 78.2308C9.90583 77.7535 9.89307 77.218 9.7187 76.6244C9.58341 76.1639 9.38429 75.7888 9.12133 75.4992C8.85837 75.2095 8.55867 75.003 8.22222 74.8795C7.88576 74.7559 7.53754 74.7248 7.17755 74.7861L6.76267 73.3738C7.41645 73.2151 8.02983 73.2406 8.60283 73.4502C9.17281 73.6497 9.67352 73.9918 10.105 74.4765C10.5232 74.954 10.8345 75.5407 11.0389 76.2366Z" fill="#9F9F9F"/>
<path d="M8.85263 66.0782L0.318037 66.4789L0.261 65.2643L3.77713 65.0992L3.78013 65.1631C2.5335 65.2216 1.60975 64.9927 1.00887 64.4763C0.396827 63.9498 0.0650419 63.1378 0.0135087 62.0403L0 61.7526L1.37449 61.6881L1.4 62.2315C1.44003 63.0839 1.69988 63.7284 2.17955 64.1651C2.64857 64.6022 3.30928 64.8008 4.16168 64.7607L8.78059 64.5439L8.85263 66.0782Z" fill="#9F9F9F"/>
<path d="M10.0724 51.0873C9.92354 51.819 9.66732 52.4363 9.30375 52.9392C8.94017 53.4422 8.51522 53.8455 8.02889 54.1493C7.53423 54.4406 7.01061 54.6334 6.45803 54.7278C5.90757 54.8117 5.36581 54.7994 4.83273 54.691L4.55051 54.6336C4.01743 54.5251 3.51501 54.3195 3.04324 54.0167C2.56102 53.7117 2.15543 53.3244 1.82647 52.8548C1.48706 52.3829 1.2535 51.8456 1.12581 51.2427C0.987659 50.6377 0.990891 49.9798 1.1355 49.269C1.28012 48.5582 1.53421 47.9514 1.89778 47.4484C2.2509 46.9434 2.67586 46.54 3.17264 46.2383C3.65898 45.9345 4.18366 45.7365 4.74669 45.6442C5.29927 45.5498 5.8421 45.5569 6.37518 45.6653L6.6574 45.7227C7.19048 45.8312 7.6929 46.0368 8.16467 46.3396C8.63856 46.632 9.04521 47.0141 9.38463 47.4859C9.71572 47.9451 9.95034 48.4772 10.0885 49.0822C10.2266 49.6873 10.2213 50.3556 10.0724 51.0873ZM8.72403 50.813C8.85163 50.1858 8.82421 49.6251 8.64176 49.1308C8.45099 48.6239 8.14382 48.2076 7.72024 47.882C7.29879 47.5459 6.79539 47.3183 6.21005 47.1992C5.61426 47.078 5.05672 47.0897 4.53745 47.2344C4.01817 47.3791 3.57693 47.6486 3.21372 48.0427C2.85263 48.4264 2.60935 48.9266 2.48388 49.5433C2.36053 50.1496 2.38902 50.7051 2.56934 51.2098C2.74966 51.7146 3.05054 52.135 3.47199 52.4711C3.89344 52.8072 4.40206 53.0359 4.99786 53.1571C5.5832 53.2762 6.13444 53.2686 6.65159 53.1344C7.17087 52.9897 7.61628 52.7265 7.98781 52.3449C8.35103 51.9508 8.59643 51.4401 8.72403 50.813Z" fill="#9F9F9F"/>
<path d="M13.1907 40.3487L2.57728 35.4725L3.21853 34.0768L13.832 38.953L13.1907 40.3487ZM3.18794 37.0561L2.08298 36.5484L3.21853 34.0768L4.32349 34.5845L3.18794 37.0561Z" fill="#9F9F9F"/>
<path d="M17.703 32.1514L8.11325 25.4837L8.9901 24.2226L18.5799 30.8903L17.703 32.1514ZM8.43573 27.15L7.43734 26.4558L8.9901 24.2226L9.98849 24.9167L8.43573 27.15Z" fill="#9F9F9F"/>
<path d="M32.8284 17.611C32.3149 17.9366 31.782 18.142 31.2297 18.2271C30.6774 18.3122 30.1305 18.2864 29.5891 18.1498C29.0568 18.0075 28.5577 17.7682 28.0918 17.4321C27.635 17.0903 27.241 16.6582 26.9096 16.1357L26.7553 15.8925C26.4297 15.3791 26.2096 14.8429 26.0951 14.284C25.9805 13.7251 25.9679 13.1773 26.057 12.6408C26.1552 12.0985 26.3559 11.5986 26.6593 11.1409C26.966 10.6685 27.3805 10.2666 27.903 9.93521C28.4524 9.5867 29.0266 9.38671 29.6255 9.33525C30.2188 9.27477 30.8137 9.39632 31.4105 9.69991C32.0073 10.0035 32.5693 10.5312 33.0967 11.283L32.0078 10.7611L28.9312 5.91048L30.2283 5.08777L36.4843 14.951L35.4574 15.6024L33.4264 12.4002L33.8047 12.1602C34.2886 13.0028 34.5402 13.7779 34.5596 14.4855C34.5733 15.1842 34.4202 15.7992 34.1004 16.3305C33.7838 16.8471 33.3598 17.2739 32.8284 17.611ZM32.2841 16.3646C32.7255 16.0847 33.0635 15.7313 33.2981 15.3046C33.5327 14.8779 33.641 14.4114 33.6229 13.9049C33.5992 13.3895 33.4273 12.8796 33.1073 12.3752L32.7131 11.7536C32.3989 11.2582 32.0206 10.9108 31.5783 10.7113C31.1393 10.4971 30.6781 10.4171 30.1945 10.4712C29.7142 10.5106 29.2579 10.6674 28.8255 10.9416C28.3481 11.2444 27.9962 11.6255 27.7697 12.085C27.5522 12.5387 27.4685 13.0339 27.5184 13.5707C27.5773 14.1017 27.781 14.642 28.1295 15.1914C28.4781 15.7409 28.8873 16.1571 29.3573 16.44C29.8216 16.714 30.3098 16.8464 30.8219 16.8373C31.3283 16.8193 31.8157 16.6617 32.2841 16.3646Z" fill="#9F9F9F"/>
<path d="M47.551 10.9475C46.8321 11.1491 46.1659 11.203 45.5524 11.1091C44.939 11.0152 44.3861 10.8213 43.8938 10.5273C43.4088 10.2202 42.9982 9.84232 42.662 9.39378C42.336 8.94236 42.0996 8.45475 41.9527 7.93096L41.8749 7.65365C41.7281 7.12985 41.6816 6.58897 41.7357 6.03099C41.7868 5.46275 41.9462 4.92507 42.2139 4.41797C42.4788 3.90059 42.8502 3.44747 43.3283 3.05862C43.8035 2.65949 44.3903 2.36201 45.0887 2.16618C45.7871 1.97035 46.4431 1.91937 47.0565 2.01323C47.6671 2.09682 48.22 2.29075 48.7152 2.59502C49.2075 2.88901 49.6232 3.26542 49.9624 3.72423C50.2986 4.17277 50.5402 4.65894 50.6871 5.18273L50.7648 5.46004C50.9117 5.98384 50.9581 6.52472 50.9041 7.0827C50.8603 7.63779 50.7061 8.17403 50.4412 8.6914C50.1838 9.19563 49.8175 9.64731 49.3423 10.0464C48.867 10.4456 48.27 10.7459 47.551 10.9475ZM47.1795 9.6226C47.7958 9.44981 48.2821 9.16942 48.6386 8.78144C49.0025 8.3803 49.2326 7.91696 49.329 7.39143C49.4356 6.86302 49.4083 6.31124 49.247 5.73609C49.0828 5.15066 48.8179 4.65998 48.452 4.26405C48.0862 3.86811 47.6451 3.59854 47.1286 3.45534C46.6223 3.30926 46.0662 3.32117 45.4602 3.49109C44.8646 3.65812 44.3833 3.93707 44.0166 4.32794C43.6498 4.7188 43.4131 5.17844 43.3065 5.70686C43.1999 6.23527 43.2286 6.79218 43.3928 7.3776C43.5541 7.95276 43.8125 8.43974 44.168 8.83856C44.5338 9.2345 44.9713 9.51064 45.4804 9.66699C45.9969 9.81019 46.5633 9.7954 47.1795 9.6226Z" fill="#9F9F9F"/>
<path d="M60.8084 8.66687L62.8339 0.478762L64.9125 0.553985L66.6286 8.87749L65.3175 8.83004L63.6002 0.538516L64.1119 0.557033L62.0716 8.71258L60.8084 8.66687ZM60.0249 8.63852L60.0689 7.42331L61.8437 7.48754L61.7998 8.70274L60.0249 8.63852ZM59.6731 8.62579L57.5677 0L59.0388 0.0532347L61.0802 8.67671L59.6731 8.62579ZM65.6372 8.84162L65.6812 7.62641L67.4561 7.69064L67.4121 8.90585L65.6372 8.84162ZM66.3568 8.86766L68.7124 0.40331L70.1035 0.453652L67.6999 8.91626L66.3568 8.86766Z" fill="#9F9F9F"/>
<path d="M76.0151 10.5695L78.9105 2.53109L80.0546 2.94317L78.8129 6.39037L78.6323 6.3253C78.9178 5.5325 79.2636 4.90309 79.6695 4.43708C80.0891 3.96465 80.5703 3.66746 81.1131 3.54551C81.6595 3.41353 82.2689 3.46863 82.9412 3.71082L83.0014 3.7325C84.015 4.09759 84.6488 4.683 84.9028 5.48875C85.1668 6.29811 85.0837 7.2999 84.6536 8.49413L82.9999 13.0854L81.5547 12.5649L83.3169 7.67254C83.541 7.05034 83.5443 6.49032 83.3268 5.9925C83.113 5.48463 82.6999 5.12045 82.0878 4.89995C81.4555 4.67223 80.8732 4.68357 80.3409 4.93398C79.8085 5.18439 79.4248 5.63575 79.1899 6.28806L77.4603 11.0901L76.0151 10.5695Z" fill="#9F9F9F"/>
<path d="M98.5334 19.053L99.8422 17.6048L101.219 18.8493L99.9104 20.2975L98.5334 19.053Z" fill="#9F9F9F"/>
<path d="M109.248 39.0925C108.836 38.2135 108.631 37.397 108.631 36.643C108.631 35.8891 108.811 35.228 109.169 34.6598C109.527 34.0916 110.03 33.656 110.677 33.353L111.342 34.773C111.023 34.9223 110.743 35.1536 110.501 35.4671C110.263 35.7903 110.131 36.1996 110.104 36.6952C110.082 37.2005 110.231 37.796 110.552 38.4819C110.851 39.1194 111.187 39.5981 111.56 39.9179C111.943 40.2332 112.33 40.4173 112.72 40.4703C113.119 40.5187 113.498 40.4593 113.855 40.2919C114.29 40.0883 114.559 39.7326 114.663 39.2247C114.776 38.7122 114.697 38.0779 114.426 37.3218L113.978 36.1006C113.616 35.1274 113.555 34.243 113.795 33.4475C114.035 32.652 114.566 32.062 115.387 31.6775C116.034 31.3745 116.672 31.2644 117.299 31.3474C117.932 31.44 118.514 31.7031 119.047 32.1367C119.589 32.5659 120.035 33.1523 120.383 33.8961C120.727 34.6303 120.895 35.3409 120.887 36.0278C120.879 36.7147 120.7 37.3281 120.353 37.8679C120.019 38.4129 119.514 38.8437 118.838 39.1603L118.173 37.7403C118.511 37.582 118.791 37.3506 119.014 37.0461C119.241 36.7513 119.372 36.3897 119.407 35.9611C119.442 35.5325 119.332 35.0478 119.079 34.5068C118.835 33.9852 118.539 33.5934 118.193 33.3316C117.851 33.0794 117.49 32.9365 117.109 32.9029C116.742 32.8744 116.39 32.9392 116.052 33.0976C115.665 33.2785 115.393 33.5888 115.233 34.0285C115.074 34.4682 115.108 34.994 115.336 35.6058L115.784 36.827C116.065 37.5787 116.203 38.2741 116.196 38.9134C116.203 39.5578 116.064 40.1173 115.78 40.5919C115.51 41.0717 115.09 41.445 114.52 41.7119C113.873 42.015 113.217 42.1102 112.552 41.9977C111.887 41.8851 111.267 41.5805 110.693 41.0838C110.119 40.587 109.637 39.9233 109.248 39.0925Z" fill="#9F9F9F"/>
<path d="M113.762 53.8829C113.648 53.1557 113.676 52.5036 113.845 51.9267C114.015 51.3602 114.284 50.8702 114.652 50.4566C115.029 50.0413 115.462 49.7038 115.951 49.444C116.441 49.1947 116.944 49.0298 117.461 48.9491L117.745 48.9047C118.283 48.8207 118.823 48.8228 119.366 48.9108C119.91 49.0093 120.415 49.2003 120.88 49.4839C121.358 49.7764 121.764 50.1664 122.099 50.6539C122.434 51.1413 122.657 51.7381 122.767 52.4442C122.878 53.1503 122.845 53.8032 122.668 54.4029C122.494 55.0132 122.19 55.5248 121.758 55.9377C121.338 56.3596 120.805 56.6426 120.158 56.7868L119.931 55.3324C120.447 55.1763 120.846 54.8656 121.13 54.4003C121.424 53.9333 121.517 53.3521 121.408 52.6565C121.314 52.0558 121.099 51.5766 120.762 51.2189C120.426 50.8612 120.005 50.6192 119.499 50.4931C118.994 50.3669 118.441 50.3507 117.84 50.4445C117.26 50.535 116.744 50.7183 116.29 50.9942C115.847 51.2685 115.515 51.6281 115.293 52.073C115.083 52.5268 115.026 53.0594 115.121 53.6706C115.195 54.1449 115.344 54.5427 115.567 54.8642C115.79 55.1856 116.06 55.4295 116.377 55.5959C116.695 55.7622 117.036 55.8385 117.401 55.8247L117.628 57.2791C116.959 57.3511 116.354 57.2458 115.813 56.9632C115.274 56.6911 114.822 56.2867 114.458 55.7498C114.106 55.2219 113.873 54.5996 113.762 53.8829Z" fill="#9F9F9F"/>
<path d="M114.604 64.2397L123.118 64.9556L123.016 66.1674L119.509 65.8724L119.514 65.8086C120.758 65.9132 121.644 66.2607 122.172 66.851C122.71 67.4529 122.933 68.3012 122.841 69.396L122.817 69.683L121.446 69.5677L121.491 69.0256C121.563 68.1753 121.389 67.5024 120.971 67.0069C120.563 66.5123 119.934 66.2293 119.083 66.1578L114.476 65.7703L114.604 64.2397Z" fill="#9F9F9F"/>
<path d="M111.439 78.9435C111.682 78.2375 112.017 77.6589 112.443 77.2076C112.869 76.7564 113.343 76.4119 113.865 76.1742C114.393 75.9499 114.937 75.8271 115.498 75.8056C116.054 75.7942 116.59 75.877 117.104 76.054L117.377 76.1478C117.891 76.3249 118.362 76.5943 118.791 76.956C119.229 77.3212 119.58 77.7582 119.845 78.2667C120.12 78.7788 120.282 79.342 120.33 79.9564C120.388 80.5743 120.299 81.2261 120.063 81.912C119.827 82.5978 119.495 83.1663 119.069 83.6176C118.653 84.0723 118.179 84.4167 117.648 84.651C117.126 84.8888 116.58 85.0167 116.009 85.0348C115.449 85.0563 114.912 84.9785 114.398 84.8014L114.125 84.7077C113.611 84.5306 113.14 84.2612 112.711 83.8994C112.28 83.5478 111.926 83.1159 111.651 82.6039C111.383 82.1054 111.22 81.5472 111.162 80.9293C111.104 80.3114 111.196 79.6495 111.439 78.9435ZM112.74 79.3914C112.532 79.9965 112.486 80.556 112.603 81.0699C112.726 81.5973 112.976 82.0501 113.353 82.4282C113.727 82.8164 114.197 83.1078 114.761 83.3022C115.336 83.5001 115.891 83.5612 116.424 83.4854C116.958 83.4097 117.431 83.2001 117.842 82.8567C118.25 82.5234 118.557 82.0592 118.762 81.4641C118.963 80.8791 119.007 80.3246 118.894 79.8007C118.781 79.2767 118.538 78.8206 118.164 78.4324C117.79 78.0442 117.315 77.7512 116.74 77.5533C116.176 77.3588 115.628 77.2945 115.098 77.3601C114.564 77.4358 114.088 77.6386 113.67 77.9685C113.259 78.3119 112.949 78.7862 112.74 79.3914Z" fill="#9F9F9F"/>
<path d="M106.947 89.1836L116.834 95.4025L116.016 96.7027L106.129 90.4838L106.947 89.1836ZM116.435 93.7529L117.464 94.4003L116.016 96.7027L114.987 96.0552L116.435 93.7529Z" fill="#9F9F9F"/>
<path d="M101.404 96.7223L110.042 104.584L109.008 105.72L100.37 97.8583L101.404 96.7223ZM109.94 102.89L110.839 103.708L109.008 105.72L108.109 104.901L109.94 102.89Z" fill="#9F9F9F"/>
<path d="M84.5112 109.166C85.0627 108.91 85.6178 108.776 86.1765 108.763C86.7353 108.751 87.2741 108.848 87.793 109.054C88.3023 109.264 88.7659 109.567 89.1839 109.961C89.5922 110.359 89.9266 110.839 90.187 111.4L90.3082 111.661C90.5641 112.213 90.7123 112.773 90.753 113.342C90.7936 113.911 90.7347 114.456 90.5764 114.977C90.4083 115.501 90.1441 115.971 89.7836 116.385C89.4179 116.813 88.9545 117.158 88.3933 117.418C87.803 117.692 87.2077 117.815 86.6071 117.788C86.0111 117.771 85.4371 117.573 84.885 117.194C84.3329 116.815 83.8445 116.219 83.4197 115.404L84.4313 116.064L86.8489 121.274L85.4555 121.921L80.5395 111.326L81.6426 110.814L83.2386 114.254L82.8322 114.442C82.4624 113.544 82.314 112.743 82.387 112.038C82.4646 111.344 82.6966 110.754 83.083 110.269C83.4643 109.798 83.9403 109.43 84.5112 109.166ZM84.8882 110.472C84.4141 110.692 84.0329 110.998 83.7446 111.391C83.4563 111.783 83.2881 112.232 83.24 112.736C83.1963 113.25 83.3002 113.778 83.5516 114.32L83.8614 114.988C84.1083 115.52 84.438 115.914 84.8505 116.169C85.2578 116.439 85.7047 116.578 86.1912 116.588C86.6726 116.611 87.1454 116.516 87.6099 116.3C88.1227 116.062 88.5213 115.73 88.8058 115.304C89.0806 114.883 89.2283 114.403 89.2488 113.864C89.2596 113.33 89.1281 112.768 88.8542 112.177C88.5804 111.587 88.2289 111.121 87.7999 110.779C87.3753 110.447 86.9085 110.252 86.3996 110.194C85.8951 110.146 85.3913 110.239 84.8882 110.472Z" fill="#9F9F9F"/>
<path d="M69.0452 113.852C69.7843 113.745 70.4518 113.779 71.0478 113.952C71.6438 114.125 72.1666 114.389 72.6164 114.745C73.0571 115.113 73.4149 115.541 73.6898 116.03C73.9541 116.52 74.1249 117.034 74.2022 117.573L74.2431 117.858C74.3204 118.396 74.2959 118.938 74.1695 119.485C74.0447 120.041 73.8165 120.554 73.485 121.021C73.1549 121.5 72.7275 121.901 72.2028 122.224C71.6796 122.558 71.059 122.776 70.341 122.879C69.623 122.982 68.966 122.947 68.3701 122.774C67.7756 122.611 67.2527 122.347 66.8015 121.981C66.3517 121.625 65.9886 121.198 65.7122 120.699C65.4374 120.21 65.2613 119.696 65.184 119.158L65.1431 118.873C65.0658 118.334 65.0903 117.792 65.2166 117.246C65.3324 116.701 65.5553 116.19 65.8854 115.711C66.2064 115.245 66.6285 114.845 67.1517 114.511C67.6749 114.178 68.3061 113.958 69.0452 113.852ZM69.2407 115.214C68.6072 115.304 68.0884 115.519 67.6844 115.857C67.2713 116.207 66.9827 116.637 66.8186 117.145C66.644 117.655 66.5991 118.206 66.6839 118.797C66.7703 119.399 66.969 119.92 67.2801 120.36C67.5911 120.801 67.9934 121.125 68.4868 121.335C68.9696 121.546 69.5225 121.606 70.1455 121.517C70.7579 121.429 71.2714 121.215 71.686 120.876C72.1006 120.536 72.3952 120.111 72.5699 119.601C72.7445 119.091 72.7886 118.535 72.7022 117.933C72.6174 117.342 72.4247 116.826 72.1242 116.384C71.8132 115.943 71.4155 115.613 70.9311 115.391C70.4377 115.182 69.8742 115.123 69.2407 115.214Z" fill="#9F9F9F"/>
<path d="M55.6035 114.383L52.5273 122.237L50.4762 121.892L49.8605 113.415L51.1543 113.634L51.7753 122.078L51.2704 121.993L54.3571 114.173L55.6035 114.383ZM56.3766 114.514L56.1745 115.713L54.4232 115.418L54.6253 114.219L56.3766 114.514ZM56.7237 114.572L57.686 123.399L56.2345 123.154L55.3353 114.338L56.7237 114.572ZM50.8387 113.58L50.6366 114.779L48.8853 114.484L49.0874 113.285L50.8387 113.58ZM50.1287 113.461L46.6891 121.545L45.3165 121.314L48.8034 113.237L50.1287 113.461Z" fill="#9F9F9F"/>
<path d="M40.7749 110.514L36.8557 118.106L35.7752 117.548L37.4559 114.292L37.6265 114.38C37.2399 115.129 36.8151 115.708 36.3518 116.117C35.8742 116.531 35.3583 116.763 34.8043 116.813C34.2453 116.872 33.6484 116.738 33.0133 116.41L32.9564 116.381C31.9991 115.887 31.4471 115.224 31.3004 114.392C31.1442 113.555 31.3573 112.572 31.9395 111.445L34.178 107.108L35.5429 107.813L33.1576 112.433C32.8542 113.021 32.7779 113.576 32.9286 114.098C33.0744 114.629 33.4364 115.044 34.0146 115.343C34.6117 115.651 35.1905 115.716 35.751 115.537C36.3115 115.358 36.7507 114.961 37.0688 114.344L39.41 109.809L40.7749 110.514Z" fill="#9F9F9F"/>
<path d="M22.9871 102.948L21.5006 104.214L20.2976 102.8L21.7842 101.535L22.9871 102.948Z" fill="#9F9F9F"/>
</svg>
