<svg width="43" height="21" viewBox="0 0 43 21" fill="none" xmlns="http://www.w3.org/2000/svg">
<path d="M32.6667 0.851562C29.855 0.851562 27.315 2.01156 25.4983 3.87906L23.0767 6.36823L25.695 9.05906L28.1883 6.49573C29.3242 5.32823 30.9125 4.60156 32.6667 4.60156C36.1125 4.60156 38.9167 7.40573 38.9167 10.8524C38.9167 14.2982 36.1125 17.1024 32.6667 17.1024C30.9125 17.1024 29.3242 16.3757 28.1883 15.2074C24.515 11.4313 20.8416 7.6552 17.1683 3.87906C15.3517 2.01156 12.8117 0.851562 10 0.851562C4.4775 0.851562 0 5.32906 0 10.8524C0 16.3749 4.4775 20.8524 10 20.8524C12.8117 20.8524 15.3517 19.6924 17.1683 17.8249L19.59 15.3357L16.9717 12.6449L14.4783 15.2074C13.3425 16.3757 11.7542 17.1024 10 17.1024C6.55417 17.1024 3.75 14.2982 3.75 10.8524C3.75 7.40573 6.55417 4.60156 10 4.60156C11.7542 4.60156 13.3425 5.32823 14.4783 6.49573L25.4983 17.8249C27.315 19.6924 29.855 20.8524 32.6667 20.8524C38.1892 20.8524 42.6667 16.3749 42.6667 10.8524C42.6667 5.32906 38.1892 0.851562 32.6667 0.851562Z" fill="#FF9900"/>
</svg>
