<svg width="104" height="72" viewBox="0 0 104 72" fill="none" xmlns="http://www.w3.org/2000/svg">
<g filter="url(#filter0_i_211_80)">
<rect x="0.750092" y="0.539795" width="102.453" height="71.3281" rx="35.6641" fill="#C5E5F5"/>
</g>
<g clip-path="url(#clip0_211_80)">
<path d="M36.4166 64.0867C51.8158 64.0867 64.2994 51.6031 64.2994 36.2039C64.2994 20.8046 51.8158 8.32104 36.4166 8.32104C21.0173 8.32104 8.53375 20.8046 8.53375 36.2039C8.53375 51.6031 21.0173 64.0867 36.4166 64.0867Z" fill="url(#paint0_linear_211_80)"/>
<path d="M39.6833 37.8377C39.3653 37.8377 33.4603 37.8377 33.1483 37.8377V44.3727H39.6833C41.4862 44.3727 42.9508 42.9065 42.9508 41.1052C42.9508 39.304 41.4862 37.8377 39.6833 37.8377ZM41.3171 31.3027C41.3171 29.5014 39.8524 28.0352 38.0495 28.0352H33.1483V34.5702H38.0495C39.8524 34.5702 41.3171 33.104 41.3171 31.3027ZM36.4158 14.9651C24.705 14.9651 15.1769 24.4932 15.1769 36.204C15.1769 47.9147 24.705 57.4428 36.4158 57.4428C48.1266 57.4428 57.6546 47.9147 57.6546 36.204C57.6546 24.4932 48.1266 14.9651 36.4158 14.9651ZM39.6833 47.6403H38.0495V49.274C38.0495 50.1771 37.3188 50.9078 36.4158 50.9078C35.5127 50.9078 34.782 50.1771 34.782 49.274V47.6403C34.4379 47.6403 28.5586 47.6403 28.247 47.6403C27.3439 47.6403 26.6132 46.9095 26.6132 46.0065C26.6132 45.1035 27.3439 44.3727 28.247 44.3727H29.8807C29.8807 43.8776 29.8807 28.9684 29.8807 28.0352H28.247C27.3439 28.0352 26.6132 27.3044 26.6132 26.4014C26.6132 25.4984 27.3439 24.7676 28.247 24.7676H34.782V23.1339C34.782 22.2308 35.5127 21.5001 36.4158 21.5001C37.3188 21.5001 38.0495 22.2308 38.0495 23.1339V24.7676C41.6521 24.7676 44.5846 27.6985 44.5846 31.3027C44.5846 32.9131 43.9767 34.3701 43.0077 35.5104C44.9204 36.6515 46.2183 38.7202 46.2183 41.1052C46.2183 44.7094 43.2858 47.6403 39.6833 47.6403Z" fill="url(#paint1_linear_211_80)"/>
</g>
<defs>
<filter id="filter0_i_211_80" x="0.750092" y="0.539795" width="102.453" height="73.3281" filterUnits="userSpaceOnUse" color-interpolation-filters="sRGB">
<feFlood flood-opacity="0" result="BackgroundImageFix"/>
<feBlend mode="normal" in="SourceGraphic" in2="BackgroundImageFix" result="shape"/>
<feColorMatrix in="SourceAlpha" type="matrix" values="0 0 0 0 0 0 0 0 0 0 0 0 0 0 0 0 0 0 127 0" result="hardAlpha"/>
<feOffset dy="2"/>
<feGaussianBlur stdDeviation="1.5"/>
<feComposite in2="hardAlpha" operator="arithmetic" k2="-1" k3="1"/>
<feColorMatrix type="matrix" values="0 0 0 0 0.315104 0 0 0 0 0.564539 0 0 0 0 0.6875 0 0 0 1 0"/>
<feBlend mode="normal" in2="shape" result="effect1_innerShadow_211_80"/>
</filter>
<linearGradient id="paint0_linear_211_80" x1="36.4166" y1="64.0867" x2="36.4166" y2="8.32104" gradientUnits="userSpaceOnUse">
<stop/>
<stop offset="1" stop-color="#898989"/>
</linearGradient>
<linearGradient id="paint1_linear_211_80" x1="36.4158" y1="14.9651" x2="36.4158" y2="57.4428" gradientUnits="userSpaceOnUse">
<stop stop-color="white"/>
<stop offset="1" stop-color="#C5E5F5"/>
</linearGradient>
<clipPath id="clip0_211_80">
<rect width="55.7656" height="55.7656" fill="white" transform="translate(8.53168 8.3208)"/>
</clipPath>
</defs>
</svg>
