<svg width="1139" height="180" viewBox="0 0 1139 180" fill="none" xmlns="http://www.w3.org/2000/svg">
<path d="M0.601562 179.36V0.888916H68.9225C81.8198 0.888916 92.5385 2.92227 101.079 6.98899C109.677 10.9976 116.096 16.4877 120.337 23.4592C124.637 30.4307 126.786 38.3318 126.786 47.1624C126.786 54.4244 125.392 60.6407 122.603 65.8112C119.815 70.9236 116.067 75.0775 111.362 78.2728C106.656 81.4681 101.398 83.7629 95.5885 85.1572V86.9C101.921 87.2486 107.992 89.1948 113.802 92.7387C119.669 96.2244 124.462 101.163 128.18 107.553C131.899 113.944 133.758 121.671 133.758 130.733C133.758 139.971 131.521 148.278 127.048 155.657C122.574 162.977 115.835 168.757 106.83 172.998C97.8252 177.239 86.4965 179.36 72.8439 179.36H0.601562ZM32.932 152.345H67.7024C79.4378 152.345 87.8908 150.108 93.0613 145.635C98.29 141.104 100.904 135.294 100.904 128.206C100.904 122.92 99.5971 118.156 96.9828 113.915C94.3685 109.616 90.6504 106.246 85.8284 103.806C81.0064 101.308 75.2549 100.059 68.5739 100.059H32.932V152.345ZM32.932 76.7913H64.9138C70.4911 76.7913 75.5164 75.7747 79.9897 73.7413C84.4631 71.6498 87.978 68.716 90.5342 64.9398C93.1485 61.1054 94.4557 56.5739 94.4557 51.3453C94.4557 44.4319 92.0156 38.7385 87.1356 34.2651C82.3136 29.7917 75.1387 27.555 65.611 27.555H32.932V76.7913Z" fill="url(#paint0_linear_1_99)"/>
<path d="M199.122 0.888916V179.36H166.791V0.888916H199.122Z" fill="url(#paint1_linear_1_99)"/>
<path d="M231.197 27.9907V0.888916H373.59V27.9907H318.428V179.36H286.359V27.9907H231.197Z" fill="url(#paint2_linear_1_99)"/>
<path d="M405.948 179.36V0.888916H474.269C487.167 0.888916 497.885 2.92227 506.425 6.98899C515.024 10.9976 521.443 16.4877 525.684 23.4592C529.983 30.4307 532.133 38.3318 532.133 47.1624C532.133 54.4244 530.739 60.6407 527.95 65.8112C525.161 70.9236 521.414 75.0775 516.708 78.2728C512.003 81.4681 506.745 83.7629 500.935 85.1572V86.9C507.268 87.2486 513.339 89.1948 519.148 92.7387C525.016 96.2244 529.809 101.163 533.527 107.553C537.245 113.944 539.104 121.671 539.104 130.733C539.104 139.971 536.868 148.278 532.394 155.657C527.921 162.977 521.182 168.757 512.177 172.998C503.172 177.239 491.843 179.36 478.191 179.36H405.948ZM438.279 152.345H473.049C484.785 152.345 493.238 150.108 498.408 145.635C503.637 141.104 506.251 135.294 506.251 128.206C506.251 122.92 504.944 118.156 502.33 113.915C499.715 109.616 495.997 106.246 491.175 103.806C486.353 101.308 480.602 100.059 473.921 100.059H438.279V152.345ZM438.279 76.7913H470.261C475.838 76.7913 480.863 75.7747 485.337 73.7413C489.81 71.6498 493.325 68.716 495.881 64.9398C498.495 61.1054 499.802 56.5739 499.802 51.3453C499.802 44.4319 497.362 38.7385 492.482 34.2651C487.66 29.7917 480.486 27.555 470.958 27.555H438.279V76.7913Z" fill="url(#paint3_linear_1_99)"/>
<path d="M572.138 179.36V0.888916H639.065C652.775 0.888916 664.278 3.27085 673.574 8.03472C682.927 12.7986 689.986 19.4796 694.75 28.0778C699.572 36.618 701.983 46.5814 701.983 57.9682C701.983 69.4131 699.543 79.3476 694.663 87.7715C689.841 96.1373 682.724 102.615 673.312 107.205C663.901 111.736 652.34 114.002 638.629 114.002H590.961V87.1615H634.272C642.289 87.1615 648.854 86.0576 653.966 83.85C659.079 81.5843 662.855 78.3018 665.295 74.0027C667.793 69.6455 669.042 64.3007 669.042 57.9682C669.042 51.6358 667.793 46.2328 665.295 41.7595C662.797 37.228 658.992 33.8003 653.879 31.4765C648.767 29.0945 642.173 27.9036 634.097 27.9036H604.469V179.36H572.138ZM664.336 98.4902L708.518 179.36H672.441L629.043 98.4902H664.336Z" fill="url(#paint4_linear_1_99)"/>
<path d="M759.569 179.36H725.06L787.891 0.888916H827.803L890.721 179.36H856.212L808.544 37.4894H807.15L759.569 179.36ZM760.702 109.383H854.818V135.352H760.702V109.383Z" fill="url(#paint5_linear_1_99)"/>
<path d="M951.466 0.888916V179.36H919.136V0.888916H951.466Z" fill="url(#paint6_linear_1_99)"/>
<path d="M1138.05 0.888916V179.36H1109.29L1025.2 57.7939H1023.71V179.36H991.384V0.888916H1020.32L1104.32 122.542H1105.89V0.888916H1138.05Z" fill="url(#paint7_linear_1_99)"/>
<defs>
<linearGradient id="paint0_linear_1_99" x1="1138.5" y1="-5.99998" x2="34.3851" y2="299.002" gradientUnits="userSpaceOnUse">
<stop stop-color="#0EAADC"/>
<stop offset="0.494792" stop-color="#66C7F0"/>
<stop offset="1" stop-color="#16A8F1"/>
</linearGradient>
<linearGradient id="paint1_linear_1_99" x1="1138.5" y1="-5.99998" x2="34.3851" y2="299.002" gradientUnits="userSpaceOnUse">
<stop stop-color="#0EAADC"/>
<stop offset="0.494792" stop-color="#66C7F0"/>
<stop offset="1" stop-color="#16A8F1"/>
</linearGradient>
<linearGradient id="paint2_linear_1_99" x1="1138.5" y1="-5.99998" x2="34.3851" y2="299.002" gradientUnits="userSpaceOnUse">
<stop stop-color="#0EAADC"/>
<stop offset="0.494792" stop-color="#66C7F0"/>
<stop offset="1" stop-color="#16A8F1"/>
</linearGradient>
<linearGradient id="paint3_linear_1_99" x1="1138.5" y1="-5.99998" x2="34.3851" y2="299.002" gradientUnits="userSpaceOnUse">
<stop stop-color="#0EAADC"/>
<stop offset="0.494792" stop-color="#66C7F0"/>
<stop offset="1" stop-color="#16A8F1"/>
</linearGradient>
<linearGradient id="paint4_linear_1_99" x1="1138.5" y1="-5.99998" x2="34.3851" y2="299.002" gradientUnits="userSpaceOnUse">
<stop stop-color="#0EAADC"/>
<stop offset="0.494792" stop-color="#66C7F0"/>
<stop offset="1" stop-color="#16A8F1"/>
</linearGradient>
<linearGradient id="paint5_linear_1_99" x1="1138.5" y1="-5.99998" x2="34.3851" y2="299.002" gradientUnits="userSpaceOnUse">
<stop stop-color="#0EAADC"/>
<stop offset="0.494792" stop-color="#66C7F0"/>
<stop offset="1" stop-color="#16A8F1"/>
</linearGradient>
<linearGradient id="paint6_linear_1_99" x1="1138.5" y1="-5.99998" x2="34.3851" y2="299.002" gradientUnits="userSpaceOnUse">
<stop stop-color="#0EAADC"/>
<stop offset="0.494792" stop-color="#66C7F0"/>
<stop offset="1" stop-color="#16A8F1"/>
</linearGradient>
<linearGradient id="paint7_linear_1_99" x1="1138.5" y1="-5.99998" x2="34.3851" y2="299.002" gradientUnits="userSpaceOnUse">
<stop stop-color="#0EAADC"/>
<stop offset="0.494792" stop-color="#66C7F0"/>
<stop offset="1" stop-color="#16A8F1"/>
</linearGradient>
</defs>
</svg>
