<svg width="1920" height="513" viewBox="0 0 1920 513" fill="none" xmlns="http://www.w3.org/2000/svg">
<path d="M1975.2 200L1932.11 208.649L1876 292.154C1870.27 300.66 1861.44 306.481 1851.46 308.342C1841.47 310.202 1831.14 307.95 1822.74 302.079L1740.31 244.387L1697 251.836L1799.14 323.326C1815.95 335.076 1836.61 339.585 1856.59 335.864C1876.56 332.142 1894.21 320.494 1905.66 303.478L1975.2 200Z" fill="white" fill-opacity="0.64"/>
<path d="M1741.81 492.345L1784.9 483.696L1841.02 400.191C1846.75 391.686 1855.57 385.864 1865.56 384.004C1875.54 382.143 1885.87 384.396 1894.28 390.267L1976.7 447.958L2020.01 440.509L1917.88 369.019C1901.06 357.269 1880.4 352.76 1860.43 356.482C1840.46 360.203 1822.8 371.851 1811.35 388.868L1741.81 492.345Z" fill="white" fill-opacity="0.64"/>
<path d="M138.44 353.705C126.131 336.904 101.06 336.286 101.06 336.286C101.06 336.286 119.965 315.702 105.584 286.782C96.359 268.256 74.472 256.935 42.3997 265.915L29.7628 224L3.80675 232.028L16.4436 273.839L-5.08959 280.555L-17.7264 238.718L-43.7331 246.874L-31.0962 288.711L-73 301.731L-65.1399 328.104L-39.7145 320.179L-1.29854 447.903L-26.7239 455.88L-18.3077 483.977L23.5202 471.112L36.1571 513L62.1132 504.767L49.4763 462.878L71.0095 456.188L83.6464 498.077L109.653 489.998L97.0161 448.083L103.031 446.205C153.528 429.583 159.796 382.678 138.44 353.705ZM3.40237 306.8C3.40237 306.8 14.0173 303.429 29.1057 298.798C43.5117 294.398 59.7122 299.569 64.4889 313.927C69.2656 328.284 61.2286 344.391 45.5842 349.486C31.254 354.169 18.7435 357.848 18.7435 357.848L3.40237 306.8ZM76.1148 423.794C61.3549 428.734 41.7426 434.498 41.7426 434.498L25.8454 381.494C25.8454 381.494 43.537 376.348 58.9034 371.202C77.3532 365.104 93.6295 369.632 98.8358 386.177C104.042 402.721 96.1063 417.13 76.1148 423.794Z" fill="white"/>
<path d="M1503.38 34.7296L1461.1 66.46L1492.03 109.331L1534.3 77.6007L1503.38 34.7296Z" fill="white" fill-opacity="0.54"/>
<path d="M1259.84 -2.31583L1217.57 29.4146L1248.49 72.2857L1290.77 40.5553L1259.84 -2.31583Z" fill="white" fill-opacity="0.54"/>
<path d="M1362.71 140.344L1311.45 69.2803L1269.19 101.005L1351.36 214.932L1463.7 130.61L1432.79 87.7474L1362.71 140.344Z" fill="white" fill-opacity="0.54"/>
<path d="M1389.14 -33.3108L1440.4 37.7533L1482.67 6.02894L1400.49 -107.898L1288.15 -23.5768L1319.06 19.2861L1389.14 -33.3108Z" fill="white" fill-opacity="0.54"/>
<path d="M1381.51 16.6798L1339.76 48.0127L1370.3 90.3468L1412.04 59.0139L1381.51 16.6798Z" fill="white" fill-opacity="0.54"/>
<path d="M546.423 -28.8779L660.001 14.8229L528.855 -107.761L464.425 58.4695L546.423 -28.8779Z" fill="white"/>
<path d="M664.667 31.4491L550.582 -10.2056L464.969 75.9839L579.067 117.695L664.667 31.4491Z" fill="white"/>
<path d="M469.629 92.5818L600.794 215.25L665.218 48.9919L583.226 136.368L469.629 92.5818Z" fill="white"/>
</svg>
