<svg width="32" height="32" viewBox="0 0 32 32" fill="none" xmlns="http://www.w3.org/2000/svg">
<path d="M30.9707 23.04C30.8832 22.9707 24.5333 18.3936 22.7904 18.7221C21.9584 18.8693 21.4827 19.4368 20.528 20.5728C20.3744 20.7563 20.0053 21.1957 19.7184 21.5083C19.1151 21.3115 18.5266 21.0719 17.9573 20.7915C15.0192 19.3611 12.6453 16.9872 11.2149 14.0491C10.9343 13.4799 10.6947 12.8914 10.4981 12.288C10.8117 12 11.2512 11.6309 11.4389 11.4731C12.5696 10.5237 13.1381 10.048 13.2853 9.21387C13.5872 7.48587 9.01333 1.09227 8.96533 1.03467C8.75781 0.738209 8.48699 0.491587 8.17245 0.312643C7.85792 0.1337 7.50754 0.02691 7.14667 0C5.2928 0 0 6.86613 0 8.0224C0 8.0896 0.0970668 14.9205 8.52053 23.4891C17.0805 31.9029 23.9104 32 23.9776 32C25.1349 32 32 26.7072 32 24.8533C31.9734 24.4937 31.8672 24.1445 31.6892 23.8309C31.5112 23.5173 31.2658 23.2472 30.9707 23.04Z" fill="white"/>
</svg>
