<svg width="40" height="40" viewBox="0 0 40 40" fill="none" xmlns="http://www.w3.org/2000/svg">
<path d="M28.0938 20.0659C27.385 19.7287 26.6559 19.436 25.9107 19.1895C28.3107 17.3881 29.866 14.5196 29.866 11.2946C29.866 5.85452 25.4402 1.42857 20 1.42857C14.5598 1.42857 10.1339 5.85452 10.1339 11.2946C10.1339 14.5232 11.6927 17.3945 14.0972 19.1956C11.8942 19.9209 9.82702 21.0494 8.01776 22.5376C4.70015 25.2665 2.39345 29.0729 1.52269 33.2556C1.24978 34.5662 1.57674 35.9123 2.41956 36.9487C3.25825 37.98 4.50188 38.5714 5.83148 38.5714H23.6997C24.5011 38.5714 25.1506 37.9219 25.1506 37.1205C25.1506 36.3192 24.5011 35.6696 23.6997 35.6696H5.83148C5.2121 35.6696 4.83842 35.3239 4.67084 35.1179C4.38146 34.762 4.26945 34.2988 4.36354 33.847C5.86921 26.6146 12.2485 21.3315 19.6153 21.1533C19.8729 21.1633 20.1308 21.1632 20.3884 21.1532C22.646 21.2061 24.8172 21.7213 26.848 22.6868C27.5718 23.0306 28.4373 22.723 28.7813 21.9992C29.1253 21.2755 28.8175 20.41 28.0938 20.0659ZM20.3538 18.25C20.1189 18.2457 19.8838 18.2457 19.6488 18.2502C15.9712 18.0667 13.0357 15.0171 13.0357 11.2946C13.0357 7.45449 16.1598 4.33036 20 4.33036C23.8401 4.33036 26.9642 7.45449 26.9642 11.2946C26.9642 15.0161 24.0302 18.0652 20.3538 18.25Z" fill="#768299"/>
<path d="M37.1205 30.2288H33.1306V26.2388C33.1306 25.4375 32.481 24.7879 31.6797 24.7879C30.8783 24.7879 30.2288 25.4375 30.2288 26.2388V30.2288H26.2388C25.4375 30.2288 24.7879 30.8784 24.7879 31.6797C24.7879 32.481 25.4375 33.1306 26.2388 33.1306H30.2288V37.1205C30.2288 37.9219 30.8783 38.5714 31.6797 38.5714C32.481 38.5714 33.1306 37.9219 33.1306 37.1205V33.1306H37.1205C37.9219 33.1306 38.5714 32.481 38.5714 31.6797C38.5714 30.8784 37.9219 30.2288 37.1205 30.2288Z" fill="#768299"/>
</svg>
