<svg width="40" height="40" viewBox="0 0 40 40" fill="none" xmlns="http://www.w3.org/2000/svg">
<path d="M36.6664 36.25H4.99974C4.22646 36.2491 3.48511 35.9415 2.93832 35.3948C2.39153 34.848 2.08395 34.1066 2.08307 33.3333V5C2.08307 4.66848 2.21476 4.35054 2.44919 4.11612C2.68361 3.8817 3.00155 3.75 3.33307 3.75C3.66459 3.75 3.98253 3.8817 4.21695 4.11612C4.45137 4.35054 4.58307 4.66848 4.58307 5V33.3333C4.58307 33.4438 4.62697 33.5498 4.70511 33.628C4.78325 33.7061 4.88923 33.75 4.99974 33.75H36.6664C36.9979 33.75 37.3159 33.8817 37.5503 34.1161C37.7847 34.3505 37.9164 34.6685 37.9164 35C37.9164 35.3315 37.7847 35.6495 37.5503 35.8839C37.3159 36.1183 36.9979 36.25 36.6664 36.25Z" fill="#768299"/>
<path d="M3.33333 19.5833C3.06183 19.5835 2.79766 19.4953 2.58075 19.332C2.36383 19.1687 2.20598 18.9393 2.13104 18.6783C2.05611 18.4174 2.06817 18.1391 2.16541 17.8856C2.26264 17.6322 2.43977 17.4172 2.66999 17.2733L15.1383 9.47999C15.594 9.19437 16.1199 9.04052 16.6577 9.03552C17.1954 9.03052 17.7241 9.17456 18.185 9.45166L24.705 13.3667C24.7749 13.4084 24.8555 13.4288 24.9369 13.4256C25.0183 13.4223 25.0969 13.3955 25.1633 13.3483L35.94 5.64833C36.2099 5.4556 36.5452 5.37797 36.8723 5.43252C37.1994 5.48706 37.4914 5.6693 37.6842 5.93916C37.8769 6.20902 37.9545 6.54438 37.9 6.87148C37.8454 7.19857 37.6632 7.4906 37.3933 7.68333L26.615 15.3833C26.153 15.7141 25.6042 15.9023 25.0364 15.9248C24.4687 15.9473 23.9068 15.8031 23.42 15.51L16.9 11.5967C16.8339 11.557 16.758 11.5365 16.681 11.5374C16.6039 11.5383 16.5285 11.5605 16.4633 11.6017L3.99666 19.3933C3.79783 19.5178 3.56791 19.5837 3.33333 19.5833ZM10.8333 29.5833C10.5018 29.5833 10.1839 29.4516 9.94944 29.2172C9.71502 28.9828 9.58333 28.6649 9.58333 28.3333V20C9.58333 19.6685 9.71502 19.3505 9.94944 19.1161C10.1839 18.8817 10.5018 18.75 10.8333 18.75C11.1648 18.75 11.4828 18.8817 11.7172 19.1161C11.9516 19.3505 12.0833 19.6685 12.0833 20V28.3333C12.0833 28.6649 11.9516 28.9828 11.7172 29.2172C11.4828 29.4516 11.1648 29.5833 10.8333 29.5833Z" fill="#768299"/>
<path d="M18.3333 29.5833C18.0018 29.5833 17.6839 29.4516 17.4494 29.2172C17.215 28.9828 17.0833 28.6649 17.0833 28.3333V16.6667C17.0833 16.3351 17.215 16.0172 17.4494 15.7828C17.6839 15.5484 18.0018 15.4167 18.3333 15.4167C18.6648 15.4167 18.9828 15.5484 19.2172 15.7828C19.4516 16.0172 19.5833 16.3351 19.5833 16.6667V28.3333C19.5833 28.6649 19.4516 28.9828 19.2172 29.2172C18.9828 29.4516 18.6648 29.5833 18.3333 29.5833ZM25.8333 29.5833C25.5018 29.5833 25.1839 29.4516 24.9494 29.2172C24.715 28.9828 24.5833 28.6649 24.5833 28.3333V20C24.5833 19.6685 24.715 19.3505 24.9494 19.1161C25.1839 18.8817 25.5018 18.75 25.8333 18.75C26.1648 18.75 26.4828 18.8817 26.7172 19.1161C26.9516 19.3505 27.0833 19.6685 27.0833 20V28.3333C27.0833 28.6649 26.9516 28.9828 26.7172 29.2172C26.4828 29.4516 26.1648 29.5833 25.8333 29.5833ZM33.3333 29.5833C33.0018 29.5833 32.6838 29.4516 32.4494 29.2172C32.215 28.9828 32.0833 28.6649 32.0833 28.3333V15C32.0833 14.6685 32.215 14.3505 32.4494 14.1161C32.6838 13.8817 33.0018 13.75 33.3333 13.75C33.6648 13.75 33.9828 13.8817 34.2172 14.1161C34.4516 14.3505 34.5833 14.6685 34.5833 15V28.3333C34.5833 28.6649 34.4516 28.9828 34.2172 29.2172C33.9828 29.4516 33.6648 29.5833 33.3333 29.5833Z" fill="#768299"/>
</svg>
