<svg width="40" height="40" viewBox="0 0 40 40" fill="none" xmlns="http://www.w3.org/2000/svg">
<path d="M18.9264 2.81444C18.7796 2.66767 18.6005 2.55741 18.4033 2.49254C18.2062 2.42768 17.9966 2.41002 17.7913 2.441C17.5861 2.47198 17.391 2.55072 17.2218 2.67088C17.0526 2.79105 16.914 2.94927 16.8171 3.13282L8.46906 18.9017L3.91895 23.4518C2.5181 24.8526 2.09094 26.8425 2.58575 28.6254C0.947447 30.7068 1.06418 33.7273 2.98107 35.6469C3.47378 36.1396 4.05891 36.5302 4.70291 36.7963C5.34691 37.0625 6.0371 37.1988 6.73391 37.1976C7.89466 37.1976 9.04213 36.797 10.0012 36.0422C10.4669 36.1709 10.9431 36.2597 11.4233 36.2597C12.3532 36.2597 13.2778 35.9984 14.103 35.5129L17.5215 38.9288C18.1676 39.5748 19.0166 39.8972 19.8656 39.8972C20.7146 39.8972 21.5636 39.5748 22.2109 38.9288C22.8317 38.3064 23.1803 37.4632 23.1803 36.5841C23.1803 35.705 22.8317 34.8618 22.2109 34.2394L18.9277 30.9561L19.7249 30.1589L35.4951 21.8095C35.6784 21.7124 35.8365 21.5737 35.9565 21.4045C36.0764 21.2353 36.1551 21.0403 36.186 20.8351C36.217 20.63 36.1994 20.4205 36.1347 20.2234C36.07 20.0263 35.96 19.8471 35.8135 19.7003L18.9264 2.81444ZM4.85683 33.7698C4.53026 33.4407 4.29588 33.0316 4.17714 32.5834C4.05841 32.1353 4.05949 31.6638 4.18028 31.2162L7.41046 34.4477C6.96285 34.5684 6.49136 34.5695 6.04319 34.4508C5.59503 34.3321 5.18592 34.0977 4.85683 33.7711V33.7698ZM9.54755 32.8319L5.79471 29.0791C5.2983 28.581 5.01955 27.9065 5.01955 27.2033C5.01955 26.5001 5.2983 25.8256 5.79471 25.3275L9.54888 21.5747L17.0519 29.0791L13.2991 32.8319C12.2644 33.8666 10.5823 33.8666 9.54755 32.8319ZM20.3352 36.1151C20.501 36.281 20.5262 36.4799 20.5262 36.5834C20.5262 36.6869 20.501 36.8859 20.3352 37.0517C20.2096 37.1737 20.0415 37.242 19.8665 37.2423C19.6914 37.2425 19.5232 37.1747 19.3973 37.053L16.1127 33.7698L17.0519 32.8319L20.3352 36.1151ZM19.1731 27.4487L11.1792 19.4535L18.3214 5.96105L32.6669 20.3052L19.1731 27.4487ZM23.9792 4.08131V1.42819C23.9792 1.07636 24.119 0.738943 24.3678 0.490165C24.6165 0.241386 24.954 0.101624 25.3058 0.101624C25.6576 0.101624 25.995 0.241386 26.2438 0.490165C26.4926 0.738943 26.6324 1.07636 26.6324 1.42819V4.08131C26.6324 4.43314 26.4926 4.77055 26.2438 5.01933C25.995 5.26811 25.6576 5.40787 25.3058 5.40787C24.954 5.40787 24.6165 5.26811 24.3678 5.01933C24.119 4.77055 23.9792 4.43314 23.9792 4.08131ZM38.5714 13.3673C38.5714 13.7191 38.4317 14.0565 38.1829 14.3053C37.9341 14.554 37.5967 14.6938 37.2449 14.6938H34.5917C34.2399 14.6938 33.9025 14.554 33.6537 14.3053C33.4049 14.0565 33.2652 13.7191 33.2652 13.3673C33.2652 13.0154 33.4049 12.678 33.6537 12.4292C33.9025 12.1805 34.2399 12.0407 34.5917 12.0407H37.2449C37.5967 12.0407 37.9341 12.1805 38.1829 12.4292C38.4317 12.678 38.5714 13.0154 38.5714 13.3673ZM29.6742 8.99888C29.4255 8.75011 29.2858 8.41276 29.2858 8.061C29.2858 7.70924 29.4255 7.37189 29.6742 7.12312L32.3273 4.46999C32.4497 4.34329 32.596 4.24223 32.7579 4.17271C32.9197 4.10319 33.0938 4.06659 33.2699 4.06506C33.4461 4.06353 33.6208 4.09709 33.7838 4.16379C33.9468 4.2305 34.0949 4.329 34.2195 4.45355C34.344 4.57811 34.4425 4.72622 34.5092 4.88925C34.5759 5.05228 34.6095 5.22696 34.608 5.4031C34.6065 5.57924 34.5699 5.75331 34.5003 5.91516C34.4308 6.077 34.3298 6.22338 34.203 6.34575L31.5499 8.99888C31.427 9.12249 31.2809 9.22059 31.1199 9.28753C30.959 9.35447 30.7864 9.38894 30.612 9.38894C30.4377 9.38894 30.2651 9.35447 30.1042 9.28753C29.9432 9.22059 29.7971 9.12249 29.6742 8.99888Z" fill="#768299"/>
</svg>
