<svg width="40" height="40" viewBox="0 0 40 40" fill="none" xmlns="http://www.w3.org/2000/svg">
<path fill-rule="evenodd" clip-rule="evenodd" d="M35.4167 13.3333V26.6667C35.4158 27.2189 35.196 27.7483 34.8055 28.1388C34.415 28.5293 33.8856 28.7491 33.3333 28.75H6.66668C6.11441 28.7491 5.58502 28.5293 5.19451 28.1388C4.804 27.7483 4.58423 27.2189 4.58334 26.6667V8.33333C4.58423 7.78107 4.804 7.25168 5.19451 6.86117C5.58502 6.47066 6.11441 6.25088 6.66668 6.25H19.1667C19.4982 6.25 19.8161 6.1183 20.0506 5.88388C20.285 5.64946 20.4167 5.33152 20.4167 5C20.4167 4.66848 20.285 4.35054 20.0506 4.11612C19.8161 3.8817 19.4982 3.75 19.1667 3.75H6.66668C5.45168 3.75 4.28501 4.23333 3.42501 5.09167C2.56634 5.95204 2.08385 7.11778 2.08334 8.33333V26.6667C2.08334 27.8817 2.56668 29.0483 3.42501 29.9083C4.28538 30.767 5.45113 31.2495 6.66668 31.25H33.3333C34.5483 31.25 35.715 30.7667 36.575 29.9083C37.4337 29.048 37.9162 27.8822 37.9167 26.6667V13.3333C37.9167 13.0018 37.785 12.6839 37.5506 12.4494C37.3161 12.215 36.9982 12.0833 36.6667 12.0833C36.3352 12.0833 36.0172 12.215 35.7828 12.4494C35.5484 12.6839 35.4167 13.0018 35.4167 13.3333Z" fill="#768299"/>
<path fill-rule="evenodd" clip-rule="evenodd" d="M33.75 8.33331V4.99998C33.75 4.22665 33.4433 3.48498 32.895 2.93831C32.6245 2.66714 32.3032 2.45202 31.9494 2.3053C31.5956 2.15858 31.2163 2.08314 30.8333 2.08331H24.1667C23.3933 2.08331 22.6517 2.38998 22.105 2.93831C21.8338 3.20879 21.6187 3.53013 21.472 3.88392C21.3253 4.2377 21.2498 4.61698 21.25 4.99998V8.33331C21.25 9.10665 21.5567 9.84831 22.105 10.395C22.6517 10.9433 23.3933 11.25 24.1667 11.25H30.8333C31.6067 11.25 32.3483 10.9433 32.895 10.395C33.4433 9.84831 33.75 9.10665 33.75 8.33331ZM31.25 8.33331C31.25 8.44382 31.2061 8.5498 31.128 8.62794C31.0498 8.70608 30.9438 8.74998 30.8333 8.74998H24.1667C24.0562 8.74998 23.9502 8.70608 23.872 8.62794C23.7939 8.5498 23.75 8.44382 23.75 8.33331V4.99998C23.75 4.88947 23.7939 4.78349 23.872 4.70535C23.9502 4.62721 24.0562 4.58331 24.1667 4.58331H30.8333C30.9438 4.58331 31.0498 4.62721 31.128 4.70535C31.2061 4.78349 31.25 4.88947 31.25 4.99998V8.33331Z" fill="#768299"/>
<path fill-rule="evenodd" clip-rule="evenodd" d="M37.9167 8.76833V4.56499C37.9159 4.22482 37.8321 3.88997 37.6723 3.58963C37.5126 3.28928 37.2819 3.03254 37.0002 2.84176C36.7186 2.65098 36.3946 2.53195 36.0564 2.49505C35.7182 2.45814 35.3762 2.50446 35.06 2.62999L32.035 3.83999C31.8033 3.93286 31.6047 4.09298 31.4648 4.29972C31.3249 4.50646 31.2501 4.75036 31.25 4.99999V8.33333C31.2501 8.58296 31.3249 8.82686 31.4648 9.0336C31.6047 9.24035 31.8033 9.40047 32.035 9.49333L35.06 10.7033C35.3762 10.8289 35.7182 10.8752 36.0564 10.8383C36.3946 10.8014 36.7186 10.6823 37.0002 10.4916C37.2819 10.3008 37.5126 10.044 37.6723 9.7437C37.8321 9.44335 37.9159 9.10851 37.9167 8.76833ZM35.4167 5.17999V8.15333L33.75 7.48666V5.84666L35.4167 5.17999ZM25.63 29.605C25.5471 29.3562 25.3881 29.1397 25.1754 28.9863C24.9628 28.8329 24.7072 28.7502 24.445 28.75H15.555C15.2928 28.7502 15.0372 28.8329 14.8246 28.9863C14.6119 29.1397 14.4529 29.3562 14.37 29.605L12.1467 36.2717C12.0848 36.4596 12.0684 36.6595 12.0986 36.855C12.1289 37.0506 12.205 37.2361 12.3208 37.3966C12.4365 37.557 12.5886 37.6878 12.7646 37.7782C12.9406 37.8686 13.1355 37.916 13.3333 37.9167H26.6667C26.8648 37.9168 27.0601 37.8698 27.2364 37.7796C27.4128 37.6894 27.5652 37.5586 27.6811 37.398C27.797 37.2373 27.8731 37.0514 27.903 36.8556C27.933 36.6597 27.9159 36.4596 27.8533 36.2717L25.63 29.605ZM23.5433 31.25L24.9317 35.4167H15.0683L16.4567 31.25H23.5433Z" fill="#768299"/>
<path fill-rule="evenodd" clip-rule="evenodd" d="M10.8334 37.9167H29.1667C29.4982 37.9167 29.8161 37.785 30.0506 37.5506C30.285 37.3161 30.4167 36.9982 30.4167 36.6667C30.4167 36.3351 30.285 36.0172 30.0506 35.7828C29.8161 35.5484 29.4982 35.4167 29.1667 35.4167H10.8334C10.5018 35.4167 10.1839 35.5484 9.94947 35.7828C9.71505 36.0172 9.58335 36.3351 9.58335 36.6667C9.58335 36.9982 9.71505 37.3161 9.94947 37.5506C10.1839 37.785 10.5018 37.9167 10.8334 37.9167ZM25.4167 23.295C25.4167 22.1933 24.7933 21.1183 23.5833 20.2933C22.21 19.3567 20 18.7117 17.5 18.7117C15 18.7117 12.79 19.3567 11.4167 20.2933C10.2067 21.1183 9.58335 22.1933 9.58335 23.295V24.3117C9.58269 24.5636 9.63182 24.8131 9.7279 25.0459C9.82399 25.2788 9.96515 25.4903 10.1433 25.6684C10.3214 25.8465 10.5329 25.9877 10.7658 26.0838C10.9986 26.1799 11.2481 26.229 11.5 26.2283H23.5C23.7518 26.2286 24.0011 26.1791 24.2338 26.0829C24.4664 25.9866 24.6778 25.8455 24.8558 25.6674C25.0338 25.4894 25.175 25.278 25.2712 25.0454C25.3675 24.8128 25.4169 24.5634 25.4167 24.3117V23.295ZM22.9167 23.7283H12.0833V23.295C12.0833 22.9217 12.4134 22.6383 12.825 22.3583C13.8767 21.6417 15.585 21.2117 17.5 21.2117C19.415 21.2117 21.1234 21.6417 22.175 22.3583C22.5867 22.6383 22.9167 22.9217 22.9167 23.295V23.7283Z" fill="#768299"/>
<path fill-rule="evenodd" clip-rule="evenodd" d="M17.5 10.7366C16.593 10.7363 15.7063 11.005 14.9521 11.5087C14.1978 12.0123 13.6099 12.7284 13.2627 13.5663C12.9154 14.4041 12.8245 15.3262 13.0014 16.2157C13.1782 17.1053 13.6149 17.9224 14.2562 18.5637C14.8976 19.205 15.7147 19.6418 16.6043 19.8186C17.4938 19.9955 18.4158 19.9045 19.2537 19.5573C20.0916 19.2101 20.8076 18.6221 21.3113 17.8679C21.815 17.1136 22.0837 16.2269 22.0833 15.32C22.0824 14.1047 21.5993 12.9394 20.7399 12.08C19.8806 11.2207 18.7153 10.7375 17.5 10.7366ZM17.5 13.2366C18.0381 13.2582 18.547 13.4871 18.9201 13.8754C19.2933 14.2638 19.5016 14.7814 19.5016 15.32C19.5016 15.8585 19.2933 16.3762 18.9201 16.7645C18.547 17.1529 18.0381 17.3818 17.5 17.4033C16.9475 17.4033 16.4176 17.1838 16.0269 16.7931C15.6362 16.4024 15.4167 15.8725 15.4167 15.32C15.4167 14.7674 15.6362 14.2375 16.0269 13.8468C16.4176 13.4561 16.9475 13.2366 17.5 13.2366Z" fill="#768299"/>
</svg>
