<svg width="1920" height="2297" viewBox="0 0 1920 2297" fill="none" xmlns="http://www.w3.org/2000/svg">
<g filter="url(#filter0_f_201_207)">
<circle cx="-154.5" cy="879.5" r="417.5" fill="#FBC554" fill-opacity="0.5"/>
</g>
<g filter="url(#filter1_f_201_207)">
<circle cx="1503.5" cy="-0.5" r="372.5" fill="#55BAED"/>
</g>
<path d="M1975.2 137L1932.11 145.649L1876 229.154C1870.27 237.659 1861.44 243.481 1851.46 245.341C1841.47 247.202 1831.14 244.949 1822.74 239.078L1740.31 181.387L1697 188.836L1799.14 260.326C1815.95 272.076 1836.61 276.585 1856.59 272.863C1876.56 269.142 1894.21 257.494 1905.66 240.477L1975.2 137Z" fill="white" fill-opacity="0.64"/>
<path d="M1741.81 429.345L1784.9 420.696L1841.02 337.191C1846.75 328.685 1855.57 322.864 1865.56 321.003C1875.54 319.143 1885.87 321.395 1894.28 327.266L1976.7 384.958L2020.01 377.509L1917.88 306.019C1901.06 294.269 1880.4 289.76 1860.43 293.481C1840.45 297.203 1822.8 308.851 1811.35 325.867L1741.81 429.345Z" fill="white" fill-opacity="0.64"/>
<path d="M138.44 290.705C126.131 273.903 101.06 273.286 101.06 273.286C101.06 273.286 119.965 252.702 105.584 223.781C96.359 205.256 74.472 193.934 42.3997 202.914L29.7628 161L3.80675 169.028L16.4436 210.839L-5.08959 217.555L-17.7264 175.718L-43.7331 183.874L-31.0962 225.711L-73 238.73L-65.1399 265.104L-39.7145 257.179L-1.29854 384.903L-26.7239 392.879L-18.3077 420.977L23.5202 408.111L36.1571 450L62.1132 441.766L49.4763 399.878L71.0095 393.188L83.6464 435.077L109.653 426.997L97.0161 385.083L103.031 383.205C153.528 366.583 159.796 319.677 138.44 290.705ZM3.40237 243.799C3.40237 243.799 14.0173 240.429 29.1057 235.797C43.5117 231.397 59.7122 236.569 64.4889 250.927C69.2656 265.284 61.2286 281.391 45.5842 286.485C31.254 291.168 18.7435 294.848 18.7435 294.848L3.40237 243.799ZM76.1148 360.794C61.3549 365.734 41.7426 371.498 41.7426 371.498L25.8454 318.494C25.8454 318.494 43.537 313.348 58.9034 308.202C77.3532 302.104 93.6295 306.632 98.8358 323.177C104.042 339.721 96.1063 354.13 76.1148 360.794Z" fill="white"/>
<path d="M1533.27 601.817C1545.58 601.817 1555.57 591.642 1555.57 579.09C1555.57 566.538 1545.58 556.363 1533.27 556.363C1520.95 556.363 1510.97 566.538 1510.97 579.09C1510.97 591.642 1520.95 601.817 1533.27 601.817Z" fill="white" fill-opacity="0.64"/>
<path d="M1636.49 601.817C1648.81 601.817 1658.79 591.642 1658.79 579.09C1658.79 566.538 1648.81 556.363 1636.49 556.363C1624.18 556.363 1614.2 566.538 1614.2 579.09C1614.2 591.642 1624.18 601.817 1636.49 601.817Z" fill="white" fill-opacity="0.64"/>
<path d="M1559.08 647.357C1571.39 647.357 1581.38 637.182 1581.38 624.63C1581.38 612.078 1571.39 601.903 1559.08 601.903C1546.76 601.903 1536.78 612.078 1536.78 624.63C1536.78 637.182 1546.76 647.357 1559.08 647.357Z" fill="white" fill-opacity="0.64"/>
<path d="M1610.69 556.276C1623.01 556.276 1632.99 546.101 1632.99 533.549C1632.99 520.997 1623.01 510.822 1610.69 510.822C1598.37 510.822 1588.39 520.997 1588.39 533.549C1588.39 546.101 1598.37 556.276 1610.69 556.276Z" fill="white" fill-opacity="0.64"/>
<path d="M1610.69 647.357C1623.01 647.357 1632.99 637.182 1632.99 624.63C1632.99 612.078 1623.01 601.903 1610.69 601.903C1598.37 601.903 1588.39 612.078 1588.39 624.63C1588.39 637.182 1598.37 647.357 1610.69 647.357Z" fill="white" fill-opacity="0.64"/>
<path d="M1559.08 556.276C1571.39 556.276 1581.38 546.101 1581.38 533.549C1581.38 520.997 1571.39 510.822 1559.08 510.822C1546.76 510.822 1536.78 520.997 1536.78 533.549C1536.78 546.101 1546.76 556.276 1559.08 556.276Z" fill="white" fill-opacity="0.64"/>
<path d="M1698.89 591.47C1705.34 591.47 1710.58 586.135 1710.58 579.554C1710.58 572.973 1705.34 567.639 1698.89 567.639C1692.43 567.639 1687.2 572.973 1687.2 579.554C1687.2 586.135 1692.43 591.47 1698.89 591.47Z" fill="white" fill-opacity="0.64"/>
<path d="M1470.88 591.47C1477.34 591.47 1482.57 586.135 1482.57 579.554C1482.57 572.973 1477.34 567.639 1470.88 567.639C1464.42 567.639 1459.19 572.973 1459.19 579.554C1459.19 586.135 1464.42 591.47 1470.88 591.47Z" fill="white" fill-opacity="0.64"/>
<path d="M1429.41 587.111C1433.51 587.111 1436.83 583.728 1436.83 579.554C1436.83 575.381 1433.51 571.998 1429.41 571.998C1425.32 571.998 1422 575.381 1422 579.554C1422 583.728 1425.32 587.111 1429.41 587.111Z" fill="white" fill-opacity="0.64"/>
<path d="M1740.35 587.111C1744.45 587.111 1747.77 583.728 1747.77 579.554C1747.77 575.381 1744.45 571.998 1740.35 571.998C1736.26 571.998 1732.94 575.381 1732.94 579.554C1732.94 583.728 1736.26 587.111 1740.35 587.111Z" fill="white" fill-opacity="0.64"/>
<path d="M1641.89 490.827C1648.34 490.827 1653.58 485.493 1653.58 478.912C1653.58 472.331 1648.34 466.996 1641.89 466.996C1635.43 466.996 1630.2 472.331 1630.2 478.912C1630.2 485.493 1635.43 490.827 1641.89 490.827Z" fill="white" fill-opacity="0.64"/>
<path d="M1527.88 692.113C1534.34 692.113 1539.57 686.778 1539.57 680.197C1539.57 673.616 1534.34 668.281 1527.88 668.281C1521.42 668.281 1516.19 673.616 1516.19 680.197C1516.19 686.778 1521.42 692.113 1527.88 692.113Z" fill="white" fill-opacity="0.64"/>
<path d="M1507.15 724.316C1511.24 724.316 1514.56 720.933 1514.56 716.759C1514.56 712.586 1511.24 709.203 1507.15 709.203C1503.05 709.203 1499.73 712.586 1499.73 716.759C1499.73 720.933 1503.05 724.316 1507.15 724.316Z" fill="white" fill-opacity="0.64"/>
<path d="M1662.62 449.906C1666.71 449.906 1670.03 446.523 1670.03 442.35C1670.03 438.177 1666.71 434.794 1662.62 434.794C1658.52 434.794 1655.2 438.177 1655.2 442.35C1655.2 446.523 1658.52 449.906 1662.62 449.906Z" fill="white" fill-opacity="0.64"/>
<path d="M1527.88 490.827C1534.34 490.827 1539.57 485.493 1539.57 478.912C1539.57 472.331 1534.34 466.996 1527.88 466.996C1521.42 466.996 1516.19 472.331 1516.19 478.912C1516.19 485.493 1521.42 490.827 1527.88 490.827Z" fill="white" fill-opacity="0.64"/>
<path d="M1641.89 692.113C1648.34 692.113 1653.58 686.778 1653.58 680.197C1653.58 673.616 1648.34 668.281 1641.89 668.281C1635.43 668.281 1630.2 673.616 1630.2 680.197C1630.2 686.778 1635.43 692.113 1641.89 692.113Z" fill="white" fill-opacity="0.64"/>
<path d="M1662.62 724.316C1666.71 724.316 1670.03 720.933 1670.03 716.759C1670.03 712.586 1666.71 709.203 1662.62 709.203C1658.52 709.203 1655.2 712.586 1655.2 716.759C1655.2 720.933 1658.52 724.316 1662.62 724.316Z" fill="white" fill-opacity="0.64"/>
<path d="M1507.15 449.906C1511.24 449.906 1514.56 446.523 1514.56 442.35C1514.56 438.177 1511.24 434.794 1507.15 434.794C1503.05 434.794 1499.73 438.177 1499.73 442.35C1499.73 446.523 1503.05 449.906 1507.15 449.906Z" fill="white" fill-opacity="0.64"/>
<path d="M1584.88 502.335C1592.31 502.335 1598.34 496.194 1598.34 488.618C1598.34 481.042 1592.31 474.9 1584.88 474.9C1577.45 474.9 1571.42 481.042 1571.42 488.618C1571.42 496.194 1577.45 502.335 1584.88 502.335Z" fill="white" fill-opacity="0.64"/>
<path d="M1584.88 443.774C1589.97 443.774 1594.09 439.572 1594.09 434.387C1594.09 429.203 1589.97 425 1584.88 425C1579.8 425 1575.67 429.203 1575.67 434.387C1575.67 439.572 1579.8 443.774 1584.88 443.774Z" fill="white" fill-opacity="0.64"/>
<path d="M1584.88 684.208C1592.31 684.208 1598.34 678.067 1598.34 670.491C1598.34 662.915 1592.31 656.773 1584.88 656.773C1577.45 656.773 1571.42 662.915 1571.42 670.491C1571.42 678.067 1577.45 684.208 1584.88 684.208Z" fill="white" fill-opacity="0.64"/>
<path d="M1584.88 734.11C1589.97 734.11 1594.09 729.908 1594.09 724.723C1594.09 719.539 1589.97 715.336 1584.88 715.336C1579.8 715.336 1575.67 719.539 1575.67 724.723C1575.67 729.908 1579.8 734.11 1584.88 734.11Z" fill="white" fill-opacity="0.64"/>
<path d="M1507.6 547.819C1515.04 547.819 1521.06 541.677 1521.06 534.101C1521.06 526.525 1515.04 520.384 1507.6 520.384C1500.17 520.384 1494.14 526.525 1494.14 534.101C1494.14 541.677 1500.17 547.819 1507.6 547.819Z" fill="white" fill-opacity="0.64"/>
<path d="M1461.52 516.344C1466.61 516.344 1470.73 512.141 1470.73 506.957C1470.73 501.772 1466.61 497.569 1461.52 497.569C1456.44 497.569 1452.31 501.772 1452.31 506.957C1452.31 512.141 1456.44 516.344 1461.52 516.344Z" fill="white" fill-opacity="0.64"/>
<path d="M1662.16 638.726C1669.59 638.726 1675.62 632.584 1675.62 625.009C1675.62 617.433 1669.59 611.291 1662.16 611.291C1654.73 611.291 1648.7 617.433 1648.7 625.009C1648.7 632.584 1654.73 638.726 1662.16 638.726Z" fill="white" fill-opacity="0.64"/>
<path d="M1708.24 661.54C1713.33 661.54 1717.45 657.337 1717.45 652.153C1717.45 646.968 1713.33 642.766 1708.24 642.766C1703.15 642.766 1699.03 646.968 1699.03 652.153C1699.03 657.337 1703.15 661.54 1708.24 661.54Z" fill="white" fill-opacity="0.64"/>
<path d="M1507.6 638.726C1515.04 638.726 1521.06 632.584 1521.06 625.009C1521.06 617.433 1515.04 611.291 1507.6 611.291C1500.17 611.291 1494.14 617.433 1494.14 625.009C1494.14 632.584 1500.17 638.726 1507.6 638.726Z" fill="white" fill-opacity="0.64"/>
<path d="M1461.52 661.54C1466.61 661.54 1470.73 657.337 1470.73 652.153C1470.73 646.968 1466.61 642.766 1461.52 642.766C1456.44 642.766 1452.31 646.968 1452.31 652.153C1452.31 657.337 1456.44 661.54 1461.52 661.54Z" fill="white" fill-opacity="0.64"/>
<path d="M1662.16 547.819C1669.59 547.819 1675.62 541.677 1675.62 534.101C1675.62 526.525 1669.59 520.384 1662.16 520.384C1654.73 520.384 1648.7 526.525 1648.7 534.101C1648.7 541.677 1654.73 547.819 1662.16 547.819Z" fill="white" fill-opacity="0.64"/>
<path d="M1708.24 516.344C1713.33 516.344 1717.45 512.141 1717.45 506.957C1717.45 501.772 1713.33 497.569 1708.24 497.569C1703.15 497.569 1699.03 501.772 1699.03 506.957C1699.03 512.141 1703.15 516.344 1708.24 516.344Z" fill="white" fill-opacity="0.64"/>
<path d="M1503.38 208.73L1461.1 240.46L1492.03 283.331L1534.3 251.601L1503.38 208.73Z" fill="white" fill-opacity="0.54"/>
<path d="M1259.85 171.684L1217.57 203.415L1248.49 246.286L1290.77 214.555L1259.85 171.684Z" fill="white" fill-opacity="0.54"/>
<path d="M1362.71 314.344L1311.45 243.28L1269.19 275.005L1351.36 388.932L1463.7 304.61L1432.79 261.747L1362.71 314.344Z" fill="white" fill-opacity="0.54"/>
<path d="M1389.14 140.689L1440.4 211.753L1482.67 180.029L1400.49 66.102L1288.15 150.423L1319.06 193.286L1389.14 140.689Z" fill="white" fill-opacity="0.54"/>
<path d="M1381.51 190.68L1339.76 222.013L1370.3 264.347L1412.04 233.014L1381.51 190.68Z" fill="white" fill-opacity="0.54"/>
<path d="M340.86 426.16C323.445 421.173 305.086 420.389 287.237 423.87C269.389 427.351 252.544 435.002 238.036 446.215C223.529 457.428 211.758 471.896 203.659 488.47C195.559 505.045 191.353 523.27 191.374 541.701C191.378 546.204 193.143 550.503 196.279 553.652C199.416 556.802 203.668 558.543 208.1 558.495C212.532 558.446 216.781 556.61 219.912 553.391C223.043 550.173 224.799 545.835 224.795 541.332C224.759 529.189 227.295 517.154 232.232 506.045C237.168 494.936 244.389 485.012 253.404 476.947C262.419 468.883 273.017 462.867 284.479 459.307C295.94 455.747 307.997 454.728 319.83 456.318C331.663 457.907 342.996 462.069 353.058 468.52C363.121 474.972 371.678 483.561 378.148 493.706C384.618 503.851 388.85 515.313 390.556 527.315C392.262 539.317 391.403 551.577 388.037 563.263C375.298 607.625 330.55 632.678 283.975 621.569C274.326 619.173 264.35 618.347 254.416 619.121L295.373 541.727C297.479 537.746 297.951 533.094 296.684 528.794C295.418 524.494 292.517 520.898 288.619 518.797C284.722 516.697 280.148 516.264 275.903 517.594C271.658 518.924 268.09 521.907 265.984 525.888L183.753 681.159C182.685 683.133 182.012 685.3 181.772 687.533C181.532 689.765 181.73 692.02 182.354 694.166C182.978 696.311 184.017 698.306 185.41 700.033C186.802 701.76 188.521 703.186 190.466 704.228C191.502 704.79 192.597 705.236 193.73 705.557C197.398 706.604 201.321 706.34 204.845 704.808C208.37 703.276 211.284 700.569 213.102 697.137L224.249 676.177C236.335 654.731 252.045 649.155 275.976 654.789C339.181 669.919 402.479 633.733 420.017 572.658C428.699 542.373 425.241 509.945 410.403 482.484C395.565 455.022 370.556 434.768 340.86 426.16Z" fill="white"/>
<path d="M259.183 726.377C269.013 729.199 279.313 723.368 282.189 713.352C285.065 703.336 279.429 692.928 269.599 690.106C259.769 687.283 249.469 693.114 246.593 703.13C243.717 713.146 249.354 723.554 259.183 726.377Z" fill="white"/>
<path d="M546.424 145.122L660.002 188.823L528.856 66.2395L464.426 232.469L546.424 145.122Z" fill="white"/>
<path d="M664.667 205.449L550.582 163.794L464.969 249.984L579.067 291.695L664.667 205.449Z" fill="white"/>
<path d="M469.629 266.582L600.794 389.25L665.218 222.992L583.226 310.368L469.629 266.582Z" fill="white"/>
<defs>
<filter id="filter0_f_201_207" x="-1572" y="-538" width="2835" height="2835" filterUnits="userSpaceOnUse" color-interpolation-filters="sRGB">
<feFlood flood-opacity="0" result="BackgroundImageFix"/>
<feBlend mode="normal" in="SourceGraphic" in2="BackgroundImageFix" result="shape"/>
<feGaussianBlur stdDeviation="500" result="effect1_foregroundBlur_201_207"/>
</filter>
<filter id="filter1_f_201_207" x="131" y="-1373" width="2745" height="2745" filterUnits="userSpaceOnUse" color-interpolation-filters="sRGB">
<feFlood flood-opacity="0" result="BackgroundImageFix"/>
<feBlend mode="normal" in="SourceGraphic" in2="BackgroundImageFix" result="shape"/>
<feGaussianBlur stdDeviation="500" result="effect1_foregroundBlur_201_207"/>
</filter>
</defs>
</svg>
