<svg width="1920" height="89" viewBox="0 0 1920 89" fill="none" xmlns="http://www.w3.org/2000/svg">
<path d="M1920 44.5L1906.29 44.4656L1892.57 44.4223L1878.86 44.3733L1865.14 44.3242L1851.43 44.2822L1837.71 44.2566L1824 44.2574L1810.29 44.2939L1796.57 44.3737L1782.86 44.5L1769.14 44.6706L1755.43 44.8755L1741.71 45.0968L1728 45.308L1714.29 45.476L1700.57 45.5637L1686.86 45.5343L1673.14 45.3569L1659.43 45.0124L1645.71 44.5L1632 43.8421L1618.29 43.0872L1604.57 42.3103L1590.86 41.6085L1577.14 41.0935L1563.43 40.879L1549.71 41.0659L1536 41.7253L1522.29 42.8818L1508.57 44.5L1494.86 46.4765L1481.14 48.6394L1467.43 50.7574L1453.71 52.5588L1440 53.7599L1426.29 54.1L1412.57 53.3796L1398.86 51.4975L1385.14 48.4802L1371.43 44.5L1357.71 39.8757L1344 35.0544L1330.29 30.574L1316.57 27.0077L1302.86 24.8968L1289.14 24.6786L1275.43 26.6187L1261.71 30.7567L1248 36.8758L1234.29 44.5L1220.57 52.9261L1206.86 61.2861L1193.14 68.6373L1179.43 74.07L1165.71 76.8202L1152 76.3731L1138.29 72.5435L1124.57 65.5216L1110.86 55.8741L1097.14 44.5L1083.43 32.5428L1069.71 21.2676L1056 11.9181L1042.29 5.57015L1028.57 3L1014.86 4.58463L1001.14 10.2476L987.429 19.4581L973.714 31.2852L960 44.5L946.286 57.7148L932.572 69.5419L918.857 78.7524L905.143 84.4154L891.429 86L877.714 83.4299L864 77.0819L850.286 67.7324L836.571 56.4572L822.857 44.5L809.143 33.126L795.429 23.4784L781.714 16.4565L768 12.6269L754.286 12.1798L740.571 14.93L726.857 20.3627L713.143 27.7139L699.429 36.0739L685.714 44.5L672 52.1243L658.286 58.2433L644.571 62.3813L630.857 64.3214L617.143 64.1032L603.429 61.9923L589.714 58.426L576 53.9456L562.286 49.1243L548.572 44.5L534.857 40.5198L521.143 37.5025L507.429 35.6204L493.714 34.9L480 35.2401L466.286 36.4412L452.571 38.2426L438.857 40.3606L425.143 42.5235L411.429 44.5L397.714 46.1182L384 47.2747L370.286 47.9341L356.572 48.121L342.857 47.9065L329.143 47.3915L315.429 46.6897L301.714 45.9128L288 45.1579L274.286 44.5L260.571 43.9876L246.857 43.6431L233.143 43.4657L219.429 43.4363L205.714 43.524L192 43.692L178.286 43.9032L164.572 44.1245L150.857 44.3294L137.143 44.5L123.429 44.6264L109.714 44.7061L96 44.7426L82.2859 44.7434L68.5714 44.7178L54.8573 44.6758L41.1431 44.6267L27.4287 44.5777L13.7144 44.5344L7.6212e-05 44.5" stroke="white" stroke-width="5"/>
</svg>
