<svg width="1920" height="180" viewBox="0 0 1920 180" fill="none" xmlns="http://www.w3.org/2000/svg">
<path d="M392.602 179.36V0.888916H460.922C473.82 0.888916 484.538 2.92227 493.079 6.98899C501.677 10.9976 508.096 16.4877 512.337 23.4592C516.637 30.4307 518.786 38.3318 518.786 47.1624C518.786 54.4244 517.392 60.6407 514.603 65.8112C511.815 70.9236 508.067 75.0775 503.362 78.2728C498.656 81.4681 493.398 83.7629 487.589 85.1572V86.9C493.921 87.2486 499.992 89.1948 505.802 92.7387C511.669 96.2244 516.462 101.163 520.18 107.553C523.899 113.944 525.758 121.671 525.758 130.733C525.758 139.971 523.521 148.278 519.048 155.657C514.574 162.977 507.835 168.757 498.83 172.998C489.825 177.239 478.496 179.36 464.844 179.36H392.602ZM424.932 152.345H459.702C471.438 152.345 479.891 150.108 485.061 145.635C490.29 141.104 492.904 135.294 492.904 128.206C492.904 122.92 491.597 118.156 488.983 113.915C486.369 109.616 482.65 106.246 477.828 103.806C473.006 101.308 467.255 100.059 460.574 100.059H424.932V152.345ZM424.932 76.7913H456.914C462.491 76.7913 467.516 75.7747 471.99 73.7413C476.463 71.6498 479.978 68.716 482.534 64.9398C485.148 61.1054 486.456 56.5739 486.456 51.3453C486.456 44.4319 484.016 38.7385 479.136 34.2651C474.314 29.7917 467.139 27.555 457.611 27.555H424.932V76.7913Z" fill="url(#paint0_linear_1_98)"/>
<path d="M591.122 0.888916V179.36H558.791V0.888916H591.122Z" fill="url(#paint1_linear_1_98)"/>
<path d="M623.197 27.9907V0.888916H765.59V27.9907H710.428V179.36H678.359V27.9907H623.197Z" fill="url(#paint2_linear_1_98)"/>
<path d="M797.948 179.36V0.888916H866.269C879.167 0.888916 889.885 2.92227 898.425 6.98899C907.024 10.9976 913.443 16.4877 917.684 23.4592C921.983 30.4307 924.133 38.3318 924.133 47.1624C924.133 54.4244 922.739 60.6407 919.95 65.8112C917.161 70.9236 913.414 75.0775 908.708 78.2728C904.003 81.4681 898.745 83.7629 892.935 85.1572V86.9C899.268 87.2486 905.339 89.1948 911.148 92.7387C917.016 96.2244 921.809 101.163 925.527 107.553C929.245 113.944 931.104 121.671 931.104 130.733C931.104 139.971 928.868 148.278 924.394 155.657C919.921 162.977 913.182 168.757 904.177 172.998C895.172 177.239 883.843 179.36 870.191 179.36H797.948ZM830.279 152.345H865.049C876.785 152.345 885.238 150.108 890.408 145.635C895.637 141.104 898.251 135.294 898.251 128.206C898.251 122.92 896.944 118.156 894.33 113.915C891.715 109.616 887.997 106.246 883.175 103.806C878.353 101.308 872.602 100.059 865.921 100.059H830.279V152.345ZM830.279 76.7913H862.261C867.838 76.7913 872.863 75.7747 877.337 73.7413C881.81 71.6498 885.325 68.716 887.881 64.9398C890.495 61.1054 891.802 56.5739 891.802 51.3453C891.802 44.4319 889.362 38.7385 884.482 34.2651C879.66 29.7917 872.486 27.555 862.958 27.555H830.279V76.7913Z" fill="url(#paint3_linear_1_98)"/>
<path d="M964.138 179.36V0.888916H1031.06C1044.78 0.888916 1056.28 3.27085 1065.57 8.03472C1074.93 12.7986 1081.99 19.4796 1086.75 28.0778C1091.57 36.618 1093.98 46.5814 1093.98 57.9682C1093.98 69.4131 1091.54 79.3476 1086.66 87.7715C1081.84 96.1373 1074.72 102.615 1065.31 107.205C1055.9 111.736 1044.34 114.002 1030.63 114.002H982.961V87.1615H1026.27C1034.29 87.1615 1040.85 86.0576 1045.97 83.85C1051.08 81.5843 1054.85 78.3018 1057.29 74.0027C1059.79 69.6455 1061.04 64.3007 1061.04 57.9682C1061.04 51.6358 1059.79 46.2328 1057.29 41.7595C1054.8 37.228 1050.99 33.8003 1045.88 31.4765C1040.77 29.0945 1034.17 27.9036 1026.1 27.9036H996.469V179.36H964.138ZM1056.34 98.4902L1100.52 179.36H1064.44L1021.04 98.4902H1056.34Z" fill="url(#paint4_linear_1_98)"/>
<path d="M1151.57 179.36H1117.06L1179.89 0.888916H1219.8L1282.72 179.36H1248.21L1200.54 37.4894H1199.15L1151.57 179.36ZM1152.7 109.383H1246.82V135.352H1152.7V109.383Z" fill="url(#paint5_linear_1_98)"/>
<path d="M1343.47 0.888916V179.36H1311.14V0.888916H1343.47Z" fill="url(#paint6_linear_1_98)"/>
<path d="M1530.05 0.888916V179.36H1501.29L1417.2 57.7939H1415.71V179.36H1383.38V0.888916H1412.32L1496.32 122.542H1497.89V0.888916H1530.05Z" fill="url(#paint7_linear_1_98)"/>
<path d="M1920 93.5L1906.29 93.4656L1892.57 93.4223L1878.86 93.3733L1865.14 93.3242L1851.43 93.2822L1837.71 93.2566L1824 93.2574L1810.29 93.2939L1796.57 93.3737L1782.86 93.5L1769.14 93.6706L1755.43 93.8755L1741.71 94.0968L1728 94.308L1714.29 94.476L1700.57 94.5637L1686.86 94.5343L1673.14 94.3569L1659.43 94.0124L1645.71 93.5L1632 92.8421L1618.29 92.0872L1604.57 91.3103L1590.86 90.6085L1577.14 90.0935L1563.43 89.879L1549.71 90.0659L1536 90.7253L1522.29 91.8818L1508.57 93.5L1494.86 95.4765L1481.14 97.6394L1467.43 99.7574L1453.71 101.559L1440 102.76L1426.29 103.1L1412.57 102.38L1398.86 100.497L1385.14 97.4802L1371.43 93.5L1357.71 88.8757L1344 84.0544L1330.29 79.574L1316.57 76.0077L1302.86 73.8968L1289.14 73.6786L1275.43 75.6187L1261.71 79.7567L1248 85.8758L1234.29 93.5L1220.57 101.926L1206.86 110.286L1193.14 117.637L1179.43 123.07L1165.71 125.82L1152 125.373L1138.29 121.544L1124.57 114.522L1110.86 104.874L1097.14 93.5L1083.43 81.5428L1069.71 70.2676L1056 60.9181L1042.29 54.5701L1028.57 52L1014.86 53.5846L1001.14 59.2476L987.429 68.4581L973.714 80.2852L960 93.5L946.286 106.715L932.572 118.542L918.857 127.752L905.143 133.415L891.429 135L877.714 132.43L864 126.082L850.286 116.732L836.571 105.457L822.857 93.5L809.143 82.126L795.429 72.4784L781.714 65.4565L768 61.6269L754.286 61.1798L740.571 63.93L726.857 69.3627L713.143 76.7139L699.429 85.0739L685.714 93.5L672 101.124L658.286 107.243L644.571 111.381L630.857 113.321L617.143 113.103L603.429 110.992L589.714 107.426L576 102.946L562.286 98.1243L548.572 93.5L534.857 89.5198L521.143 86.5025L507.429 84.6204L493.714 83.9L480 84.2401L466.286 85.4412L452.571 87.2426L438.857 89.3606L425.143 91.5235L411.429 93.5L397.714 95.1182L384 96.2747L370.286 96.9341L356.572 97.121L342.857 96.9065L329.143 96.3915L315.429 95.6897L301.714 94.9128L288 94.1579L274.286 93.5L260.571 92.9876L246.857 92.6431L233.143 92.4657L219.429 92.4363L205.714 92.524L192 92.692L178.286 92.9032L164.572 93.1245L150.857 93.3294L137.143 93.5L123.429 93.6264L109.714 93.7061L96 93.7426L82.2859 93.7434L68.5714 93.7178L54.8573 93.6758L41.1431 93.6267L27.4287 93.5777L13.7144 93.5344L7.6212e-05 93.5" stroke="white" stroke-width="5"/>
<path fill-rule="evenodd" clip-rule="evenodd" d="M623.199 28.1018V1H765.592V28.1018H710.43V179.471H678.361V28.1018H623.199ZM1117.06 179.471H1151.57L1166.33 135.463H1233.43L1248.21 179.471H1282.72L1219.81 1H1179.89L1117.06 179.471ZM1224.7 109.494L1200.55 37.6005H1199.15L1175.04 109.494H1224.7Z" fill="url(#paint8_linear_1_98)"/>
<defs>
<linearGradient id="paint0_linear_1_98" x1="1530.5" y1="-5.99998" x2="426.385" y2="299.002" gradientUnits="userSpaceOnUse">
<stop stop-color="#0EAADC"/>
<stop offset="0.494792" stop-color="#66C7F0"/>
<stop offset="1" stop-color="#16A8F1"/>
</linearGradient>
<linearGradient id="paint1_linear_1_98" x1="1530.5" y1="-5.99998" x2="426.385" y2="299.002" gradientUnits="userSpaceOnUse">
<stop stop-color="#0EAADC"/>
<stop offset="0.494792" stop-color="#66C7F0"/>
<stop offset="1" stop-color="#16A8F1"/>
</linearGradient>
<linearGradient id="paint2_linear_1_98" x1="1530.5" y1="-5.99998" x2="426.385" y2="299.002" gradientUnits="userSpaceOnUse">
<stop stop-color="#0EAADC"/>
<stop offset="0.494792" stop-color="#66C7F0"/>
<stop offset="1" stop-color="#16A8F1"/>
</linearGradient>
<linearGradient id="paint3_linear_1_98" x1="1530.5" y1="-5.99998" x2="426.385" y2="299.002" gradientUnits="userSpaceOnUse">
<stop stop-color="#0EAADC"/>
<stop offset="0.494792" stop-color="#66C7F0"/>
<stop offset="1" stop-color="#16A8F1"/>
</linearGradient>
<linearGradient id="paint4_linear_1_98" x1="1530.5" y1="-5.99998" x2="426.385" y2="299.002" gradientUnits="userSpaceOnUse">
<stop stop-color="#0EAADC"/>
<stop offset="0.494792" stop-color="#66C7F0"/>
<stop offset="1" stop-color="#16A8F1"/>
</linearGradient>
<linearGradient id="paint5_linear_1_98" x1="1530.5" y1="-5.99998" x2="426.385" y2="299.002" gradientUnits="userSpaceOnUse">
<stop stop-color="#0EAADC"/>
<stop offset="0.494792" stop-color="#66C7F0"/>
<stop offset="1" stop-color="#16A8F1"/>
</linearGradient>
<linearGradient id="paint6_linear_1_98" x1="1530.5" y1="-5.99998" x2="426.385" y2="299.002" gradientUnits="userSpaceOnUse">
<stop stop-color="#0EAADC"/>
<stop offset="0.494792" stop-color="#66C7F0"/>
<stop offset="1" stop-color="#16A8F1"/>
</linearGradient>
<linearGradient id="paint7_linear_1_98" x1="1530.5" y1="-5.99998" x2="426.385" y2="299.002" gradientUnits="userSpaceOnUse">
<stop stop-color="#0EAADC"/>
<stop offset="0.494792" stop-color="#66C7F0"/>
<stop offset="1" stop-color="#16A8F1"/>
</linearGradient>
<linearGradient id="paint8_linear_1_98" x1="1529.5" y1="8.49992" x2="423.304" y2="291.561" gradientUnits="userSpaceOnUse">
<stop stop-color="#0EAADC"/>
<stop offset="0.494792" stop-color="#66C7F0"/>
<stop offset="1" stop-color="#16A8F1"/>
</linearGradient>
</defs>
</svg>
