<svg width="225" height="70" viewBox="0 0 225 70" fill="none" xmlns="http://www.w3.org/2000/svg">
<path d="M75.4242 26.9672C76.7611 27.6235 77.8139 28.5371 78.5774 29.7105C79.3409 30.8839 79.724 32.2233 79.724 33.7236C79.724 36.0168 78.9176 37.9403 77.3076 39.4968C75.6975 41.0533 73.7311 41.8302 71.4111 41.8302H59.0449V13.165H70.511C72.7774 13.165 74.6741 13.9152 76.2038 15.4181C77.7603 16.921 78.5372 18.7748 78.5372 20.9877C78.5372 23.5541 77.5005 25.5473 75.4242 26.9672ZM70.511 16.7308H62.8544V25.4937H70.511C71.7112 25.4937 72.7211 25.0704 73.5409 24.2239C74.3607 23.3773 74.7706 22.3406 74.7706 21.1109C74.7706 19.8813 74.3473 18.8874 73.5007 18.0408C72.681 17.1674 71.6844 16.7308 70.511 16.7308ZM62.8544 38.2698H71.4138C72.697 38.2698 73.774 37.8197 74.65 36.9196C75.5234 36.0195 75.96 34.9131 75.96 33.603C75.96 32.293 75.51 31.2268 74.6098 30.3266C73.7633 29.4265 72.6997 28.9764 71.4165 28.9764H62.8571V38.2725L62.8544 38.2698Z" fill="url(#paint0_linear_44_13681)"/>
<path d="M84.2285 41.8329V13.1677H88.038V41.8329H84.2285Z" fill="url(#paint1_linear_44_13681)"/>
<path d="M91.8447 13.1677H112.524V16.771H104.048V41.8302H100.281V16.771H91.8447V13.1677Z" fill="url(#paint2_linear_44_13681)"/>
<path d="M132.69 26.9672C134.027 27.6235 135.08 28.5371 135.843 29.7105C136.607 30.8839 136.99 32.2233 136.99 33.7236C136.99 36.0168 136.183 37.9403 134.573 39.4968C132.963 41.0533 130.997 41.8302 128.677 41.8302H116.311V13.165H127.777C130.043 13.165 131.94 13.9152 133.469 15.4181C135.026 16.921 135.803 18.7748 135.803 20.9877C135.803 23.5541 134.766 25.5473 132.69 26.9672ZM127.777 16.7308H120.12V25.4937H127.777C128.977 25.4937 129.987 25.0704 130.807 24.2239C131.626 23.3773 132.036 22.3406 132.036 21.1109C132.036 19.8813 131.613 18.8874 130.766 18.0408C129.947 17.1674 128.95 16.7308 127.777 16.7308ZM120.12 38.2698H128.679C129.963 38.2698 131.04 37.8197 131.916 36.9196C132.789 36.0195 133.226 34.9131 133.226 33.603C133.226 32.293 132.776 31.2268 131.875 30.3266C131.029 29.4265 129.965 28.9764 128.682 28.9764H120.123V38.2725L120.12 38.2698Z" fill="url(#paint3_linear_44_13681)"/>
<path d="M162.703 41.8329H158.487L152.057 30.8597H145.301V41.8329H141.491V13.1677H152.957C155.414 13.1677 157.517 14.0411 159.264 15.7878C161.01 17.5077 161.884 19.5973 161.884 22.0539C161.884 23.9105 161.324 25.6036 160.204 27.1306C159.057 28.6871 157.637 29.7667 155.944 30.3668L162.701 41.8329H162.703ZM152.957 16.7308H145.301V27.4172H152.957C154.377 27.4172 155.577 26.9002 156.561 25.8608C157.57 24.824 158.077 23.5542 158.077 22.0512C158.077 20.5483 157.57 19.2946 156.561 18.2846C155.577 17.2478 154.377 16.7281 152.957 16.7281V16.7308Z" fill="url(#paint4_linear_44_13681)"/>
<path d="M189.441 41.8329H185.388L183.055 35.4033H170.155L167.822 41.8329H163.769L174.455 13.1677H178.755L189.441 41.8329ZM176.582 17.714L171.463 31.8403H181.742L176.582 17.714Z" fill="url(#paint5_linear_44_13681)"/>
<path d="M192.838 41.8329V13.1677H196.647V41.8329H192.838Z" fill="url(#paint6_linear_44_13681)"/>
<path d="M220.602 34.5433V13.1677H224.409V41.8329H221.339L206.597 20.4171V41.8329H202.787V13.1677H205.857L220.6 34.5433H220.602Z" fill="url(#paint7_linear_44_13681)"/>
<path d="M32.0793 28.478C31.1122 27.685 29.9844 27.3743 28.6958 27.5457L20.1123 28.6763L21.2777 37.5169C21.3125 37.7821 21.5563 37.9697 21.8242 37.9348L29.9254 36.8659C31.2113 36.6971 32.2347 36.1024 32.9929 35.0817C33.751 34.0637 34.043 32.8956 33.8689 31.5803C33.7001 30.2944 33.1027 29.2576 32.0793 28.4726V28.478Z" fill="url(#paint8_linear_44_13681)"/>
<path d="M30.2017 20.8322C30.9117 19.8758 31.1849 18.7801 31.0215 17.5477C30.8634 16.3422 30.3035 15.3724 29.3418 14.6357C28.4041 13.8668 27.3459 13.5614 26.1699 13.7168L19.0357 14.6571C18.733 14.6973 18.5214 14.9732 18.5615 15.2759L19.6492 23.5192L27.3299 22.5065C28.5354 22.3485 29.4918 21.7912 30.2017 20.8322Z" fill="url(#paint9_linear_44_13681)"/>
<path d="M47.6059 30.9159C47.6702 30.2435 48.1899 29.5603 48.5596 28.5637C49.4383 26.2062 48.948 24.0068 47.1853 22.2119C46.5102 21.5234 46.3521 20.9474 46.6361 20.0392C47.6193 16.8968 45.8538 13.5695 42.7087 12.5032C41.3156 12.0317 40.4423 11.8469 40.1904 11.3834C39.885 10.8208 40.3699 10.0118 40.4235 9.90192C41.0477 8.65352 40.8146 7.19079 40.2467 6.03079C39.6707 4.85203 35.087 2.20252 35.087 2.20252C34.6905 1.98285 34.219 1.68816 33.7207 1.44973C32.1267 0.691575 30.5005 0.0245065 28.6922 0.000395674C26.9991 -0.0237152 25.5069 1.05591 25.5069 2.74099C25.5069 4.42607 23.4789 4.21711 23.4789 2.74099C23.4789 1.05591 21.9867 -0.0237152 20.2936 0.000395674C18.4853 0.0245065 16.8592 0.691575 15.2652 1.44973C14.7669 1.68548 14.298 1.98017 13.8989 2.20252C13.8989 2.20252 9.31513 4.84935 8.73915 6.03079C8.17389 7.19079 7.93814 8.65619 8.56234 9.90192C8.61592 10.0091 9.10081 10.8208 8.79541 11.3834C8.54359 11.8495 7.67024 12.0317 6.27716 12.5032C3.13471 13.5695 1.36659 16.8994 2.34977 20.0392C2.63375 20.9474 2.47568 21.5234 1.80058 22.2119C0.0378076 24.0068 -0.452446 26.2062 0.426261 28.5637C0.79864 29.5603 1.31836 30.2408 1.37998 30.9159C1.47106 31.891 0.988847 32.6412 0.900441 32.5715C-0.500669 34.6397 -0.157758 37.9214 1.6961 39.7833C2.22654 40.3164 2.88557 40.7344 3.52317 41.1469C4.17684 41.5675 4.32954 41.8006 4.20631 42.5507C3.64372 45.9879 5.58867 49.3178 8.86239 50.4671C9.51338 50.6948 9.96613 51.0565 10.3278 51.6486C11.8923 54.2177 15.0482 55.5036 17.979 54.8151C20.9446 54.1159 23.4736 51.6378 23.4736 48.6186C23.4736 47.1425 25.5123 46.9684 25.5123 48.6186C25.5123 51.6378 28.0412 54.1186 31.0069 54.8151C33.9377 55.5063 37.0935 54.2177 38.6581 51.6486C39.0197 51.0565 39.4725 50.6948 40.1235 50.4671C43.3972 49.3178 45.3394 45.9879 44.7795 42.5507C44.6563 41.8033 44.809 41.5675 45.4627 41.1469C46.1003 40.737 46.7593 40.3164 47.2897 39.7833C49.1436 37.9214 49.4838 34.6397 48.0854 32.5715C47.9943 32.6385 47.5121 31.8884 47.6059 30.9159ZM37.1364 37.7044C35.5665 39.6789 33.4849 40.8362 30.8944 41.1791L28.1806 41.5354L28.6681 45.227L26.2169 45.5512L26.1365 44.9404L25.7293 41.8595L23.7897 42.114L24.2773 45.8057L21.826 46.1298L21.3384 42.4382L17.6548 42.9231C17.3387 42.966 17.0467 42.7409 17.0065 42.4248L12.9291 11.4906C12.8916 11.2146 13.0871 10.9601 13.3631 10.9226L16.6368 10.4913L16.1599 6.86931L16.6341 6.8077L18.6112 6.54784L19.0908 10.1698L21.5045 9.85102L21.025 6.22904L21.3438 6.18617L23.4789 5.90488L23.9585 9.52687L25.6703 9.30183C28.1993 8.96696 30.4282 9.52686 32.3571 10.9789C34.3154 12.4255 35.4567 14.3839 35.7835 16.8539C36.1612 19.7204 35.2959 22.0993 33.1876 23.988C34.7762 24.5238 36.0862 25.3891 37.1123 26.5866C38.1383 27.7842 38.7625 29.2228 38.9822 30.8998C39.3198 33.4609 38.7036 35.7273 37.1337 37.7018L37.1364 37.7044Z" fill="url(#paint10_linear_44_13681)"/>
<path d="M58.876 66.8736V56.6304H60.0563V60.4116H60.1564C60.2431 60.2782 60.3631 60.1081 60.5165 59.9014C60.6732 59.6913 60.8966 59.5046 61.1867 59.3412C61.4801 59.1745 61.8769 59.0912 62.3771 59.0912C63.0239 59.0912 63.5941 59.2529 64.0876 59.5763C64.5811 59.8997 64.9662 60.3582 65.2429 60.9517C65.5197 61.5452 65.6581 62.2455 65.6581 63.0524C65.6581 63.866 65.5197 64.5712 65.2429 65.168C64.9662 65.7615 64.5827 66.2217 64.0926 66.5485C63.6024 66.8719 63.0373 67.0336 62.3971 67.0336C61.9036 67.0336 61.5085 66.9519 61.2117 66.7885C60.9149 66.6218 60.6865 66.4334 60.5265 66.2234C60.3664 66.01 60.2431 65.8332 60.1564 65.6932H60.0163V66.8736H58.876ZM60.0363 63.0324C60.0363 63.6126 60.1214 64.1244 60.2914 64.5678C60.4615 65.008 60.7099 65.3531 61.0366 65.6032C61.3634 65.8499 61.7635 65.9733 62.237 65.9733C62.7305 65.9733 63.1423 65.8432 63.4724 65.5832C63.8058 65.3197 64.0559 64.9663 64.2226 64.5228C64.3927 64.076 64.4777 63.5792 64.4777 63.0324C64.4777 62.4922 64.3943 62.0054 64.2276 61.5719C64.0642 61.1351 63.8158 60.79 63.4824 60.5366C63.1523 60.2799 62.7372 60.1515 62.237 60.1515C61.7569 60.1515 61.3534 60.2732 61.0266 60.5166C60.6999 60.7567 60.4531 61.0934 60.2864 61.5269C60.1197 61.957 60.0363 62.4589 60.0363 63.0324Z" fill="#3B363C"/>
<path d="M68.0896 69.7544C67.8896 69.7544 67.7112 69.7378 67.5544 69.7044C67.3977 69.6744 67.2894 69.6444 67.2293 69.6144L67.5294 68.5741C67.8162 68.6474 68.0696 68.6741 68.2897 68.6541C68.5097 68.6341 68.7048 68.5357 68.8749 68.359C69.0482 68.1856 69.2066 67.9039 69.35 67.5138L69.5701 66.9136L66.7292 59.1912H68.0096L70.1302 65.3131H70.2103L72.3309 59.1912H73.6113L70.3503 67.9939C70.2036 68.3907 70.0219 68.7191 69.8051 68.9792C69.5884 69.2426 69.3367 69.4377 69.0499 69.5644C68.7665 69.6911 68.4464 69.7544 68.0896 69.7544Z" fill="#3B363C"/>
<path d="M79.5723 66.8736V56.6304H83.0333C83.8369 56.6304 84.4938 56.7754 85.0039 57.0655C85.5174 57.3523 85.8975 57.7407 86.1443 58.2309C86.391 58.721 86.5144 59.2679 86.5144 59.8714C86.5144 60.4749 86.391 61.0234 86.1443 61.5169C85.9009 62.0104 85.5241 62.4038 85.0139 62.6973C84.5038 62.9874 83.8502 63.1324 83.0533 63.1324H80.5726V62.0321H83.0133C83.5635 62.0321 84.0053 61.937 84.3387 61.747C84.6722 61.5569 84.9139 61.3002 85.0639 60.9767C85.2173 60.65 85.294 60.2815 85.294 59.8714C85.294 59.4613 85.2173 59.0945 85.0639 58.7711C84.9139 58.4476 84.6705 58.1942 84.3337 58.0108C83.9969 57.8241 83.5501 57.7307 82.9933 57.7307H80.8126V66.8736H79.5723Z" fill="#3B363C"/>
<path d="M88.4933 66.8736V59.1912H89.6336V60.3515H89.7137C89.8537 59.9714 90.1071 59.663 90.4739 59.4263C90.8407 59.1895 91.2542 59.0712 91.7143 59.0712C91.801 59.0712 91.9094 59.0728 92.0394 59.0762C92.1694 59.0795 92.2678 59.0845 92.3345 59.0912V60.2915C92.2945 60.2815 92.2028 60.2665 92.0594 60.2465C91.9194 60.2232 91.771 60.2115 91.6143 60.2115C91.2408 60.2115 90.9074 60.2899 90.614 60.4466C90.3239 60.6 90.0938 60.8134 89.9237 61.0868C89.757 61.3569 89.6737 61.6653 89.6737 62.0121V66.8736H88.4933Z" fill="#3B363C"/>
<path d="M96.7616 67.0336C96.0681 67.0336 95.4596 66.8686 94.9361 66.5385C94.4159 66.2084 94.0091 65.7465 93.7157 65.153C93.4256 64.5595 93.2806 63.866 93.2806 63.0724C93.2806 62.2721 93.4256 61.5736 93.7157 60.9767C94.0091 60.3799 94.4159 59.9164 94.9361 59.5863C95.4596 59.2562 96.0681 59.0912 96.7616 59.0912C97.4552 59.0912 98.062 59.2562 98.5822 59.5863C99.1057 59.9164 99.5125 60.3799 99.8026 60.9767C100.096 61.5736 100.243 62.2721 100.243 63.0724C100.243 63.866 100.096 64.5595 99.8026 65.153C99.5125 65.7465 99.1057 66.2084 98.5822 66.5385C98.062 66.8686 97.4552 67.0336 96.7616 67.0336ZM96.7616 65.9733C97.2885 65.9733 97.7219 65.8382 98.062 65.5682C98.4021 65.2981 98.6539 64.943 98.8173 64.5028C98.9807 64.0627 99.0624 63.5859 99.0624 63.0724C99.0624 62.5589 98.9807 62.0804 98.8173 61.6369C98.6539 61.1935 98.4021 60.835 98.062 60.5616C97.7219 60.2882 97.2885 60.1515 96.7616 60.1515C96.2348 60.1515 95.8013 60.2882 95.4612 60.5616C95.1211 60.835 94.8694 61.1935 94.706 61.6369C94.5426 62.0804 94.4609 62.5589 94.4609 63.0724C94.4609 63.5859 94.5426 64.0627 94.706 64.5028C94.8694 64.943 95.1211 65.2981 95.4612 65.5682C95.8013 65.8382 96.2348 65.9733 96.7616 65.9733Z" fill="#3B363C"/>
<path d="M106.447 66.8736V56.6304H110.029C110.742 56.6304 111.331 56.7538 111.794 57.0005C112.258 57.2439 112.603 57.5724 112.829 57.9858C113.056 58.3959 113.17 58.8511 113.17 59.3512C113.17 59.7914 113.091 60.1548 112.934 60.4416C112.781 60.7283 112.578 60.9551 112.324 61.1218C112.074 61.2885 111.802 61.4119 111.509 61.4919V61.5919C111.822 61.6119 112.138 61.722 112.454 61.922C112.771 62.1221 113.036 62.4088 113.25 62.7823C113.463 63.1557 113.57 63.6126 113.57 64.1527C113.57 64.6662 113.453 65.128 113.22 65.5381C112.986 65.9483 112.618 66.2734 112.114 66.5134C111.611 66.7535 110.956 66.8736 110.149 66.8736H106.447ZM107.688 65.7732H110.149C110.959 65.7732 111.534 65.6165 111.874 65.3031C112.218 64.9863 112.389 64.6029 112.389 64.1527C112.389 63.8059 112.301 63.4858 112.124 63.1924C111.948 62.8957 111.696 62.6589 111.369 62.4822C111.042 62.3021 110.655 62.2121 110.209 62.2121H107.688V65.7732ZM107.688 61.1318H109.989C110.362 61.1318 110.699 61.0584 110.999 60.9117C111.302 60.765 111.542 60.5583 111.719 60.2915C111.899 60.0248 111.989 59.7113 111.989 59.3512C111.989 58.9011 111.832 58.5193 111.519 58.2059C111.206 57.8891 110.709 57.7307 110.029 57.7307H107.688V61.1318Z" fill="#3B363C"/>
<path d="M116.769 56.6304V66.8736H115.589V56.6304H116.769Z" fill="#3B363C"/>
<path d="M122.193 67.0336C121.499 67.0336 120.891 66.8686 120.367 66.5385C119.847 66.2084 119.44 65.7465 119.147 65.153C118.857 64.5595 118.712 63.866 118.712 63.0724C118.712 62.2721 118.857 61.5736 119.147 60.9767C119.44 60.3799 119.847 59.9164 120.367 59.5863C120.891 59.2562 121.499 59.0912 122.193 59.0912C122.886 59.0912 123.493 59.2562 124.013 59.5863C124.537 59.9164 124.944 60.3799 125.234 60.9767C125.527 61.5736 125.674 62.2721 125.674 63.0724C125.674 63.866 125.527 64.5595 125.234 65.153C124.944 65.7465 124.537 66.2084 124.013 66.5385C123.493 66.8686 122.886 67.0336 122.193 67.0336ZM122.193 65.9733C122.72 65.9733 123.153 65.8382 123.493 65.5682C123.833 65.2981 124.085 64.943 124.248 64.5028C124.412 64.0627 124.493 63.5859 124.493 63.0724C124.493 62.5589 124.412 62.0804 124.248 61.6369C124.085 61.1935 123.833 60.835 123.493 60.5616C123.153 60.2882 122.72 60.1515 122.193 60.1515C121.666 60.1515 121.232 60.2882 120.892 60.5616C120.552 60.835 120.3 61.1935 120.137 61.6369C119.974 62.0804 119.892 62.5589 119.892 63.0724C119.892 63.5859 119.974 64.0627 120.137 64.5028C120.3 64.943 120.552 65.2981 120.892 65.5682C121.232 65.8382 121.666 65.9733 122.193 65.9733Z" fill="#3B363C"/>
<path d="M130.737 67.0336C130.017 67.0336 129.397 66.8636 128.877 66.5234C128.357 66.1833 127.956 65.7149 127.676 65.118C127.396 64.5212 127.256 63.8393 127.256 63.0724C127.256 62.2921 127.4 61.6036 127.686 61.0067C127.977 60.4066 128.38 59.9381 128.897 59.6013C129.417 59.2612 130.024 59.0912 130.717 59.0912C131.258 59.0912 131.744 59.1912 132.178 59.3913C132.611 59.5913 132.966 59.8714 133.243 60.2315C133.52 60.5916 133.692 61.0118 133.758 61.4919H132.578C132.488 61.1418 132.288 60.8317 131.978 60.5616C131.671 60.2882 131.258 60.1515 130.737 60.1515C130.277 60.1515 129.874 60.2715 129.527 60.5116C129.184 60.7483 128.915 61.0834 128.722 61.5169C128.532 61.947 128.437 62.4522 128.437 63.0324C128.437 63.6259 128.53 64.1427 128.717 64.5829C128.907 65.023 129.174 65.3648 129.517 65.6082C129.864 65.8516 130.271 65.9733 130.737 65.9733C131.044 65.9733 131.323 65.9199 131.573 65.8132C131.823 65.7065 132.034 65.5531 132.208 65.3531C132.381 65.153 132.505 64.913 132.578 64.6329H133.758C133.692 65.0863 133.527 65.4948 133.263 65.8582C133.003 66.2184 132.658 66.5051 132.228 66.7185C131.801 66.9286 131.304 67.0336 130.737 67.0336Z" fill="#3B363C"/>
<path d="M136.725 64.0727L136.705 62.6122H136.945L140.306 59.1912H141.767L138.185 62.8123H138.085L136.725 64.0727ZM135.625 66.8736V56.6304H136.805V66.8736H135.625ZM140.506 66.8736L137.505 63.0724L138.346 62.2521L142.007 66.8736H140.506Z" fill="#3B363C"/>
<path d="M146.231 67.0336C145.511 67.0336 144.891 66.8636 144.371 66.5234C143.851 66.1833 143.45 65.7149 143.17 65.118C142.89 64.5212 142.75 63.8393 142.75 63.0724C142.75 62.2921 142.894 61.6036 143.18 61.0067C143.47 60.4066 143.874 59.9381 144.391 59.6013C144.911 59.2612 145.518 59.0912 146.211 59.0912C146.751 59.0912 147.238 59.1912 147.672 59.3913C148.105 59.5913 148.46 59.8714 148.737 60.2315C149.014 60.5916 149.185 61.0118 149.252 61.4919H148.072C147.982 61.1418 147.782 60.8317 147.472 60.5616C147.165 60.2882 146.751 60.1515 146.231 60.1515C145.771 60.1515 145.368 60.2715 145.021 60.5116C144.677 60.7483 144.409 61.0834 144.216 61.5169C144.026 61.947 143.931 62.4522 143.931 63.0324C143.931 63.6259 144.024 64.1427 144.211 64.5829C144.401 65.023 144.667 65.3648 145.011 65.6082C145.358 65.8516 145.764 65.9733 146.231 65.9733C146.538 65.9733 146.816 65.9199 147.066 65.8132C147.317 65.7065 147.528 65.5531 147.702 65.3531C147.875 65.153 147.998 64.913 148.072 64.6329H149.252C149.185 65.0863 149.02 65.4948 148.757 65.8582C148.497 66.2184 148.152 66.5051 147.722 66.7185C147.295 66.9286 146.798 67.0336 146.231 67.0336Z" fill="#3B363C"/>
<path d="M152.299 62.2521V66.8736H151.119V56.6304H152.299V60.3916H152.399C152.579 59.9948 152.849 59.6797 153.209 59.4463C153.573 59.2095 154.056 59.0912 154.66 59.0912C155.183 59.0912 155.642 59.1962 156.035 59.4063C156.428 59.613 156.734 59.9314 156.95 60.3616C157.17 60.7883 157.28 61.3318 157.28 61.9921V66.8736H156.1V62.0721C156.1 61.4619 155.942 60.9901 155.625 60.6566C155.311 60.3199 154.876 60.1515 154.32 60.1515C153.933 60.1515 153.586 60.2332 153.279 60.3966C152.976 60.5599 152.736 60.7984 152.559 61.1118C152.386 61.4252 152.299 61.8053 152.299 62.2521Z" fill="#3B363C"/>
<path d="M161.841 67.0536C161.355 67.0536 160.913 66.9619 160.516 66.7785C160.119 66.5918 159.804 66.3234 159.571 65.9733C159.337 65.6198 159.221 65.193 159.221 64.6929C159.221 64.2527 159.307 63.896 159.481 63.6226C159.654 63.3458 159.886 63.1291 160.176 62.9724C160.466 62.8156 160.786 62.6989 161.136 62.6222C161.49 62.5422 161.845 62.4789 162.201 62.4322C162.668 62.3722 163.047 62.3272 163.337 62.2971C163.63 62.2638 163.844 62.2088 163.977 62.1321C164.114 62.0554 164.182 61.922 164.182 61.732V61.692C164.182 61.1985 164.047 60.815 163.777 60.5416C163.51 60.2682 163.105 60.1315 162.562 60.1315C161.998 60.1315 161.556 60.2549 161.236 60.5016C160.916 60.7483 160.691 61.0118 160.561 61.2918L159.441 60.8917C159.641 60.4249 159.907 60.0615 160.241 59.8014C160.578 59.538 160.944 59.3546 161.341 59.2512C161.741 59.1445 162.135 59.0912 162.522 59.0912C162.768 59.0912 163.052 59.1212 163.372 59.1812C163.695 59.2379 164.007 59.3562 164.307 59.5363C164.611 59.7164 164.862 59.9881 165.062 60.3515C165.262 60.715 165.362 61.2018 165.362 61.812V66.8736H164.182V65.8332H164.122C164.042 66 163.909 66.1783 163.722 66.3684C163.535 66.5585 163.287 66.7202 162.977 66.8535C162.667 66.9869 162.288 67.0536 161.841 67.0536ZM162.021 65.9933C162.488 65.9933 162.882 65.9016 163.202 65.7182C163.525 65.5348 163.769 65.2981 163.932 65.008C164.099 64.7179 164.182 64.4128 164.182 64.0927V63.0124C164.132 63.0724 164.022 63.1274 163.852 63.1774C163.685 63.2241 163.492 63.2658 163.272 63.3025C163.055 63.3358 162.843 63.3658 162.637 63.3925C162.433 63.4158 162.268 63.4358 162.141 63.4525C161.835 63.4925 161.548 63.5575 161.281 63.6476C161.018 63.7343 160.804 63.866 160.641 64.0427C160.481 64.2161 160.401 64.4528 160.401 64.7529C160.401 65.163 160.553 65.4731 160.856 65.6832C161.163 65.8899 161.551 65.9933 162.021 65.9933Z" fill="#3B363C"/>
<path d="M167.658 66.8736V59.1912H168.838V66.8736H167.658ZM168.258 57.9108C168.028 57.9108 167.829 57.8324 167.663 57.6757C167.499 57.519 167.418 57.3306 167.418 57.1105C167.418 56.8905 167.499 56.7021 167.663 56.5454C167.829 56.3887 168.028 56.3103 168.258 56.3103C168.488 56.3103 168.685 56.3887 168.848 56.5454C169.015 56.7021 169.098 56.8905 169.098 57.1105C169.098 57.3306 169.015 57.519 168.848 57.6757C168.685 57.8324 168.488 57.9108 168.258 57.9108Z" fill="#3B363C"/>
<path d="M172.321 62.2521V66.8736H171.141V59.1912H172.281V60.3916H172.381C172.561 60.0014 172.835 59.688 173.201 59.4513C173.568 59.2112 174.042 59.0912 174.622 59.0912C175.142 59.0912 175.597 59.1979 175.987 59.4113C176.377 59.6213 176.681 59.9414 176.898 60.3716C177.114 60.7984 177.223 61.3385 177.223 61.9921V66.8736H176.042V62.0721C176.042 61.4686 175.886 60.9984 175.572 60.6616C175.259 60.3215 174.829 60.1515 174.282 60.1515C173.905 60.1515 173.568 60.2332 173.271 60.3966C172.978 60.5599 172.746 60.7984 172.576 61.1118C172.406 61.4252 172.321 61.8053 172.321 62.2521Z" fill="#3B363C"/>
<path d="M183.783 56.6304H185.263L188.744 65.133H188.864L192.345 56.6304H193.826V66.8736H192.665V59.0912H192.565L189.364 66.8736H188.244L185.043 59.0912H184.943V66.8736H183.783V56.6304Z" fill="#3B363C"/>
<path d="M199.514 67.0336C198.774 67.0336 198.136 66.8702 197.599 66.5435C197.065 66.2134 196.654 65.7532 196.364 65.163C196.077 64.5695 195.933 63.8793 195.933 63.0924C195.933 62.3055 196.077 61.6119 196.364 61.0118C196.654 60.4082 197.057 59.9381 197.574 59.6013C198.094 59.2612 198.701 59.0912 199.394 59.0912C199.795 59.0912 200.19 59.1578 200.58 59.2912C200.97 59.4246 201.325 59.6413 201.645 59.9414C201.965 60.2382 202.22 60.6316 202.41 61.1218C202.6 61.6119 202.695 62.2155 202.695 62.9323V63.4325H196.774V62.4122H201.495C201.495 61.9787 201.408 61.5919 201.235 61.2518C201.065 60.9117 200.822 60.6433 200.505 60.4466C200.191 60.2498 199.821 60.1515 199.394 60.1515C198.924 60.1515 198.518 60.2682 198.174 60.5016C197.834 60.7317 197.572 61.0318 197.389 61.4019C197.205 61.772 197.114 62.1688 197.114 62.5922V63.2724C197.114 63.8526 197.214 64.3444 197.414 64.7479C197.617 65.148 197.899 65.4531 198.259 65.6632C198.619 65.8699 199.038 65.9733 199.514 65.9733C199.825 65.9733 200.105 65.9299 200.355 65.8432C200.608 65.7532 200.827 65.6198 201.01 65.4431C201.193 65.2631 201.335 65.0397 201.435 64.7729L202.575 65.093C202.455 65.4798 202.254 65.8199 201.97 66.1133C201.687 66.4034 201.337 66.6301 200.92 66.7935C200.503 66.9536 200.035 67.0336 199.514 67.0336Z" fill="#3B363C"/>
<path d="M207.533 67.0336C206.893 67.0336 206.327 66.8719 205.837 66.5485C205.347 66.2217 204.964 65.7615 204.687 65.168C204.41 64.5712 204.272 63.866 204.272 63.0524C204.272 62.2455 204.41 61.5452 204.687 60.9517C204.964 60.3582 205.349 59.8997 205.842 59.5763C206.336 59.2529 206.906 59.0912 207.553 59.0912C208.053 59.0912 208.448 59.1745 208.738 59.3412C209.032 59.5046 209.255 59.6913 209.408 59.9014C209.565 60.1081 209.687 60.2782 209.773 60.4116H209.873V56.6304H211.054V66.8736H209.913V65.6932H209.773C209.687 65.8332 209.563 66.01 209.403 66.2234C209.243 66.4334 209.015 66.6218 208.718 66.7885C208.421 66.9519 208.026 67.0336 207.533 67.0336ZM207.693 65.9733C208.166 65.9733 208.566 65.8499 208.893 65.6032C209.22 65.3531 209.468 65.008 209.638 64.5678C209.808 64.1244 209.893 63.6126 209.893 63.0324C209.893 62.4589 209.81 61.957 209.643 61.5269C209.477 61.0934 209.23 60.7567 208.903 60.5166C208.576 60.2732 208.173 60.1515 207.693 60.1515C207.193 60.1515 206.776 60.2799 206.442 60.5366C206.112 60.79 205.864 61.1351 205.697 61.5719C205.534 62.0054 205.452 62.4922 205.452 63.0324C205.452 63.5792 205.535 64.076 205.702 64.5228C205.872 64.9663 206.122 65.3197 206.452 65.5832C206.786 65.8432 207.199 65.9733 207.693 65.9733Z" fill="#3B363C"/>
<path d="M213.52 66.8736V59.1912H214.701V66.8736H213.52ZM214.121 57.9108C213.891 57.9108 213.692 57.8324 213.525 57.6757C213.362 57.519 213.28 57.3306 213.28 57.1105C213.28 56.8905 213.362 56.7021 213.525 56.5454C213.692 56.3887 213.891 56.3103 214.121 56.3103C214.351 56.3103 214.547 56.3887 214.711 56.5454C214.877 56.7021 214.961 56.8905 214.961 57.1105C214.961 57.3306 214.877 57.519 214.711 57.6757C214.547 57.8324 214.351 57.9108 214.121 57.9108Z" fill="#3B363C"/>
<path d="M219.264 67.0536C218.777 67.0536 218.336 66.9619 217.939 66.7785C217.542 66.5918 217.227 66.3234 216.994 65.9733C216.76 65.6198 216.643 65.193 216.643 64.6929C216.643 64.2527 216.73 63.896 216.903 63.6226C217.077 63.3458 217.309 63.1291 217.599 62.9724C217.889 62.8156 218.209 62.6989 218.559 62.6222C218.912 62.5422 219.268 62.4789 219.624 62.4322C220.091 62.3722 220.47 62.3272 220.76 62.2971C221.053 62.2638 221.266 62.2088 221.4 62.1321C221.537 62.0554 221.605 61.922 221.605 61.732V61.692C221.605 61.1985 221.47 60.815 221.2 60.5416C220.933 60.2682 220.528 60.1315 219.984 60.1315C219.421 60.1315 218.979 60.2549 218.659 60.5016C218.339 60.7483 218.114 61.0118 217.984 61.2918L216.863 60.8917C217.064 60.4249 217.33 60.0615 217.664 59.8014C218.001 59.538 218.367 59.3546 218.764 59.2512C219.164 59.1445 219.558 59.0912 219.944 59.0912C220.191 59.0912 220.475 59.1212 220.795 59.1812C221.118 59.2379 221.43 59.3562 221.73 59.5363C222.033 59.7164 222.285 59.9881 222.485 60.3515C222.685 60.715 222.785 61.2018 222.785 61.812V66.8736H221.605V65.8332H221.545C221.465 66 221.332 66.1783 221.145 66.3684C220.958 66.5585 220.71 66.7202 220.4 66.8535C220.089 66.9869 219.711 67.0536 219.264 67.0536ZM219.444 65.9933C219.911 65.9933 220.305 65.9016 220.625 65.7182C220.948 65.5348 221.191 65.2981 221.355 65.008C221.522 64.7179 221.605 64.4128 221.605 64.0927V63.0124C221.555 63.0724 221.445 63.1274 221.275 63.1774C221.108 63.2241 220.915 63.2658 220.695 63.3025C220.478 63.3358 220.266 63.3658 220.059 63.3925C219.856 63.4158 219.691 63.4358 219.564 63.4525C219.258 63.4925 218.971 63.5575 218.704 63.6476C218.441 63.7343 218.227 63.866 218.064 64.0427C217.904 64.2161 217.824 64.4528 217.824 64.7529C217.824 65.163 217.975 65.4731 218.279 65.6832C218.586 65.8899 218.974 65.9933 219.444 65.9933Z" fill="#3B363C"/>
<defs>
<linearGradient id="paint0_linear_44_13681" x1="53.2664" y1="22.22" x2="193.104" y2="81.7122" gradientUnits="userSpaceOnUse">
<stop stop-color="#199CDE"/>
<stop offset="1" stop-color="#48D4FF"/>
</linearGradient>
<linearGradient id="paint1_linear_44_13681" x1="56.4019" y1="14.8501" x2="196.24" y2="74.3424" gradientUnits="userSpaceOnUse">
<stop stop-color="#199CDE"/>
<stop offset="1" stop-color="#48D4FF"/>
</linearGradient>
<linearGradient id="paint2_linear_44_13681" x1="59.5067" y1="7.54989" x2="199.344" y2="67.0421" gradientUnits="userSpaceOnUse">
<stop stop-color="#199CDE"/>
<stop offset="1" stop-color="#48D4FF"/>
</linearGradient>
<linearGradient id="paint3_linear_44_13681" x1="62.0423" y1="1.59182" x2="201.88" y2="61.0841" gradientUnits="userSpaceOnUse">
<stop stop-color="#199CDE"/>
<stop offset="1" stop-color="#48D4FF"/>
</linearGradient>
<linearGradient id="paint4_linear_44_13681" x1="65.9063" y1="-7.49529" x2="205.744" y2="51.9969" gradientUnits="userSpaceOnUse">
<stop stop-color="#199CDE"/>
<stop offset="1" stop-color="#48D4FF"/>
</linearGradient>
<linearGradient id="paint5_linear_44_13681" x1="69.4468" y1="-15.8162" x2="209.285" y2="43.6787" gradientUnits="userSpaceOnUse">
<stop stop-color="#199CDE"/>
<stop offset="1" stop-color="#48D4FF"/>
</linearGradient>
<linearGradient id="paint6_linear_44_13681" x1="73.0441" y1="-24.2738" x2="212.882" y2="35.2187" gradientUnits="userSpaceOnUse">
<stop stop-color="#199CDE"/>
<stop offset="1" stop-color="#48D4FF"/>
</linearGradient>
<linearGradient id="paint7_linear_44_13681" x1="75.9371" y1="-31.0677" x2="215.775" y2="28.4246" gradientUnits="userSpaceOnUse">
<stop stop-color="#199CDE"/>
<stop offset="1" stop-color="#48D4FF"/>
</linearGradient>
<linearGradient id="paint8_linear_44_13681" x1="4.751" y1="3.01693" x2="34.7985" y2="43.9411" gradientUnits="userSpaceOnUse">
<stop stop-color="#199CDE"/>
<stop offset="1" stop-color="#48D4FF"/>
</linearGradient>
<linearGradient id="paint9_linear_44_13681" x1="9.19848" y1="-1.91512" x2="39.246" y2="39.0091" gradientUnits="userSpaceOnUse">
<stop stop-color="#199CDE"/>
<stop offset="1" stop-color="#48D4FF"/>
</linearGradient>
<linearGradient id="paint10_linear_44_13681" x1="4.70728" y1="2.24539" x2="34.7521" y2="43.1722" gradientUnits="userSpaceOnUse">
<stop stop-color="#199CDE"/>
<stop offset="1" stop-color="#48D4FF"/>
</linearGradient>
</defs>
</svg>
