<svg width="18" height="15" viewBox="0 0 18 15" fill="none" xmlns="http://www.w3.org/2000/svg">
<path d="M16.1505 3.64725C16.8825 3.1275 17.4982 2.47875 18 1.73175V1.731C17.3302 2.02425 16.6178 2.21925 15.8738 2.31375C16.6388 1.857 17.223 1.13925 17.4975 0.2745C16.7842 0.69975 15.9967 0.99975 15.1575 1.16775C14.4802 0.44625 13.515 0 12.462 0C10.419 0 8.77425 1.65825 8.77425 3.69075C8.77425 3.98325 8.799 4.2645 8.85975 4.53225C5.79225 4.38225 3.07725 2.91225 1.25325 0.672C0.93525 1.22475 0.74775 1.857 0.74775 2.53725C0.74775 3.81525 1.4055 4.94775 2.38725 5.604C1.794 5.59275 1.21275 5.42025 0.72 5.1495V5.19C0.72 6.98325 1.99875 8.47275 3.6765 8.81625C3.37575 8.89875 3.04875 8.93775 2.709 8.93775C2.47275 8.93775 2.23425 8.92425 2.01075 8.87475C2.4885 10.3357 3.846 11.4105 5.4585 11.4457C4.203 12.4275 2.6085 13.0192 0.88275 13.0192C0.5805 13.0192 0.29025 13.0057 0 12.969C1.635 14.0227 3.5715 14.625 5.661 14.625C12.1732 14.625 16.4175 9.192 16.1505 3.64725V3.64725Z" fill="#5E5E5E"/>
</svg>
