<svg width="18" height="11" viewBox="0 0 18 11" fill="none" xmlns="http://www.w3.org/2000/svg">
<path d="M14.9363 6.021C14.6453 5.6535 14.7285 5.49 14.9363 5.1615C14.94 5.15775 17.3422 1.83825 17.5897 0.7125L17.5912 0.71175C17.7142 0.3015 17.5913 0 16.9965 0H15.0285C14.5275 0 14.2965 0.25875 14.1727 0.54825C14.1727 0.54825 13.1707 2.94675 11.7532 4.5015C11.2957 4.95075 11.0843 5.09475 10.8345 5.09475C10.7115 5.09475 10.5203 4.95075 10.5203 4.5405V0.71175C10.5203 0.21975 10.38 0 9.96525 0H6.87075C6.5565 0 6.36975 0.2295 6.36975 0.44325C6.36975 0.90975 7.0785 1.017 7.152 2.3295V5.17725C7.152 5.80125 7.03875 5.916 6.7875 5.916C6.1185 5.916 4.49475 3.50775 3.5325 0.7515C3.33825 0.21675 3.1485 0.000749946 2.64375 0.000749946H0.675C0.11325 0.000749946 0 0.2595 0 0.549C0 1.0605 0.669 3.60375 3.111 6.96375C4.7385 9.25725 7.0305 10.5 9.1155 10.5C10.3688 10.5 10.5218 10.224 10.5218 9.74925C10.5218 7.55775 10.4085 7.35075 11.0363 7.35075C11.3273 7.35075 11.8282 7.49475 12.9982 8.601C14.3355 9.91275 14.5553 10.5 15.3038 10.5H17.2717C17.8327 10.5 18.117 10.224 17.9535 9.6795C17.5792 8.53425 15.0503 6.1785 14.9363 6.021V6.021Z" fill="#5E5E5E"/>
</svg>
