<svg width="10" height="18" viewBox="0 0 10 18" fill="none" xmlns="http://www.w3.org/2000/svg">
<path d="M8.36752 0H5.81006C3.21901 0 0.604627 1.91329 0.604627 6.18772C0.604627 8.40178 1.54305 10.1262 3.26317 11.1068L0.114745 16.8054C-0.0344859 17.0749 -0.0383674 17.3803 0.104339 17.6224C0.24367 17.8588 0.49837 18 0.785639 18H2.37813C2.73993 18 3.02208 17.8251 3.15731 17.5188L6.10925 11.745H6.32469V17.2804C6.32469 17.6705 6.65386 18 7.04345 18H8.43479C8.87169 18 9.17679 17.6949 9.17679 17.2581V0.787612C9.17684 0.323887 8.84407 0 8.36752 0ZM6.32474 9.18022H5.94472C4.47114 9.18022 3.59139 7.97737 3.59139 5.96261C3.59139 3.45741 4.70272 2.56483 5.74278 2.56483H6.32474V9.18022Z" fill="#5E5E5E"/>
</svg>
