<svg width="18" height="13" viewBox="0 0 18 13" fill="none" xmlns="http://www.w3.org/2000/svg">
<path d="M17.602 1.82176L17.6245 1.96876C17.407 1.19701 16.8197 0.60151 16.0735 0.38476L16.0577 0.38101C14.6545 1.02818e-05 9.00772 1.0365e-05 9.00772 1.0365e-05C9.00772 1.0365e-05 3.37522 -0.00748971 1.95772 0.38101C1.19722 0.60151 0.609221 1.19701 0.395471 1.95301L0.391721 1.96876C-0.132529 4.70701 -0.136279 7.99726 0.414971 10.929L0.391721 10.7805C0.609221 11.5523 1.19647 12.1478 1.94272 12.3645L1.95847 12.3683C3.36022 12.75 9.00847 12.75 9.00847 12.75C9.00847 12.75 14.6402 12.75 16.0585 12.3683C16.8197 12.1478 17.4077 11.5523 17.6215 10.7963L17.6252 10.7805C17.8637 9.50701 18.0002 8.04151 18.0002 6.54451C18.0002 6.48976 18.0002 6.43426 17.9995 6.37876C18.0002 6.32776 18.0002 6.26701 18.0002 6.20626C18.0002 4.70851 17.8637 3.24301 17.602 1.82176V1.82176ZM7.20622 9.11326V3.64351L11.9057 6.38251L7.20622 9.11326Z" fill="#5E5E5E"/>
</svg>
